<svg fill="none" height="24" viewBox="0 0 24 24" width="24" xmlns="http://www.w3.org/2000/svg"><g fill="#000"><path d="m11.1725 3.7029c.1745-.27188.1012-.63946-.1629-.81696l-1.17812-.79187c-.25902-.17411-.60463-.09973-.77576.16691l-1.4588 2.27306 2.2816 1.18504z"/><path d="m13.1771 7.43234 1.068-1.66419c.1745-.27188.1012-.63946-.1629-.81696l-1.1781-.79188c-.259-.1741-.6046-.09973-.7758.16692l-1.2328 1.92102z"/><path d="m14.4661 10.8578-1.033-.477c-.3195-.1475-.4342-.55824-.2403-.86047l2.008-3.12892c.1711-.26664.5167-.34101.7758-.16691l.9355.62887c.2641.1775.3374.54508.1629.81695l-1.9105 2.97698c-.1524.2375-.4474.3264-.6984.2105z"/><path d="m19.7425 8.75561-.9356-.62883c-.259-.1741-.6046-.09973-.7758.16691l-1.7131 2.66941c-.1939.3022-.0792.713.2403.8605l1.033.4769c.2511.1159.546.027.6984-.2105l1.6156-2.51747c.1745-.2718.1012-.63938-.1628-.81692z"/><path d="m17.1328 13.3714c.2178.1006.449.1516.6871.1516.4738 0 .9188-.2049 1.236-.558v1.715c0 1.1585-.5541 2.2339-1.482 2.8765-.2094.145-.3509.2433-.3509.2433-.1564.1088-.2504.2914-.2504.487v3.1274c0 .3236-.2525.5859-.564.5859h-8.53075c-.36693 0-.63621-.3582-.5472-.728l1.03146-4.2859c.04092-.17.00643-.3501-.09397-.4909l-4.15734-5.8301c-.14161-.1986-.14804-.4682-.01605-.67378l2.59543-4.04428c.15779-.24586.46715-.33121.72158-.19906l4.56324 2.37012c.3034.15762.4052.55587.217.84911l-.3451.53774c-.1046.16301-.2807.26093-.4693.26093h-3.56269c-.32057 0-.57869.27782-.56342.61422.01429.3152.27564.5577.57936.5577h2.41305l2.6147 5.4321c.1358.2822.4615.4166.7392.2889.2965-.1363.4203-.5003.2769-.7982l-2.3695-4.9228h.3565z"/></g></svg>