<svg fill="none" height="24" viewBox="0 0 24 24" width="24" xmlns="http://www.w3.org/2000/svg"><path d="m15 22h-6v-2h6zm0-3h-6l-.223-2c-.11997-.6615-.31837-1.3064-.591-1.921-.354-.5-.723-.927-1.08-1.344-1.31189-1.2297-2.07135-2.9372-2.106-4.735 0-3.86599 3.13401-7 7-7 3.866 0 7 3.13401 7 7-.0407 1.7868-.7943 3.4831-2.093 4.711l-.017.02c-.356.417-.724.849-1.071 1.344-.2724.6162-.4714 1.2623-.593 1.925zm-3-15c-2.76005.00331-4.99669 2.23995-5 5 0 1.544.644 2.293 1.618 3.428.37.432.79.92 1.2 1.491.4976.9668.8375 2.0069 1.007 3.081h2.351c.1739-1.071.5132-2.1084 1.006-3.075.4-.571.819-1.062 1.188-1.494l.015-.018c.972-1.14 1.615-1.893 1.615-3.413-.0033-2.76005-2.2399-4.99669-5-5z" fill="#000"/></svg>