<svg fill="none" height="24" viewBox="0 0 24 24" width="24" xmlns="http://www.w3.org/2000/svg"><path d="m5.12954 3.00772c.35609-.62315 1.01877-1.00772 1.73649-1.00772h10.26797c.7177 0 1.3804.38457 1.7364 1.00772l1.1429 2c.6479 1.13391.0485 2.50335-1.0898 2.8876.0041.08129.0034.16378-.0026.24717l-.8571 12.00001c-.0748 1.0466-.9457 1.8575-1.9949 1.8575h-8.1378c-1.04928 0-1.92016-.8109-1.99492-1.8575l-.85714-12.00001c-.00596-.08339-.00673-.16588-.00259-.24718-1.13832-.38426-1.73771-1.75369-1.08977-2.88759zm1.94442 4.99228.21428 3h9.42346l.2143-3zm.64285 9 .21429 3h8.1378l.2142-3zm10.55999-11-1.1428-2h-10.26797l-1.14286 2z" fill="#000"/></svg>