<svg fill="none" height="24" viewBox="0 0 24 24" width="24" xmlns="http://www.w3.org/2000/svg"><path d="m10.7501 22h-5.83305c-1.1505-.0011-2.0829-.9335-2.084-2.084v-9.7c-.81679-.57959-1.07109-1.67844-.592-2.55797.9-1.608 1.818-3.193 2.721-4.712.36217-.593 1.00918-.9522 1.704-.94608.42352.00431.83549.13872 1.18.38508l.024.015c.412.24 4.39205 2.609 7.59105 4.512l2.839 1.688.13.077c2.218 1.311 2.717 1.60897 2.745 1.62797.8165.5781 1.0676 1.6778.583 2.553-.883 1.577-1.8 3.162-2.721 4.712-.3575.5866-.9931.9464-1.68.951-.1346.0001-.2688-.015-.4-.045-.116.069-.756.48-1.567 1-1.443.925-3.415 2.19-3.643 2.307-.3077.1584-.6515.2332-.997.217zm-6.25005-8.97v6.886c0 .2303.1867.417.417.417h3.823c-1.453-2.453-2.879-4.911-4.24-7.303zm1.358-1c.4.687 4.71605 8.132 4.75205 8.182.0568.0739.1448.1171.238.117.0491 0 .0975-.0119.141-.035.135-.076 4.194-2.684 4.234-2.71-.314-.185-2.586-1.539-4.992-2.972l-4.39305-2.612.007.011.01.017v.006zm.474-8.12997c-.808 1.3-2.616 4.528-2.64 4.587-.05929.14165-.00669.30538.124.386.133.079 13.35405 7.95597 13.48005 7.97597.0159.0012.032.0012.048 0 .1086.0004.2095-.0561.266-.149.814-1.367 2.689-4.657 2.694-4.667.0579-.1422.0051-.3055-.125-.387-.127-.076-13.32305-7.91797-13.40805-7.95497-.03863-.01626-.08008-.02476-.122-.025-.10531.00058-.20331.0539-.261.142l-.007.012-.008.012-.012.02v.005l-.015.024-.015.019zm1.353 5.49c-.91945-.00055-1.66463-.74588-1.66499-1.66533-.00037-.91946.74421-1.66538 1.66366-1.66667.91946-.00128 1.66612.74255 1.66833 1.662-.0011.92021-.7468 1.6659-1.667 1.667z" fill="#000"/></svg>