<svg fill="none" height="24" viewBox="0 0 24 24" width="24" xmlns="http://www.w3.org/2000/svg"><path d="m11.9837 21.9999c-5.51133-.0061-9.97765-4.4796-9.9837-10 .39311.1113.79955.1681 1.20803.169 1.3513.01 2.62085-.6472 3.39447-1.7569.69163-1.00046.83777-2.28109.38936-3.41203.28672.05122.57734.07732.86859.078 1.29475.00967 2.52365-.57099 3.33955-1.57799.7984-.97724 1.1106-2.26478.8486-3.49998 5.5139.01795 9.9692 4.50963 9.9513 10.0324-.0179 5.5229-4.5023 9.9854-10.0162 9.9675zm.7618-3.432c.1536.0661.319.1002.4862.1.5045-.0005.9592-.3049 1.1525-.7718.1933-.4668.0872-1.0042-.269-1.3622-.2347-.2341-.5523-.3656-.8835-.366-.5925.0014-1.1023.4198-1.2202 1.0014-.1178.5816.1889 1.166.734 1.3986zm-5.83351-1.693c.20006.0829.41448.1254.63097.125.67546-.0002 1.28382-.4092 1.53976-1.0353s.10871-1.3451-.37266-1.8197c-.31116-.3069-.73037-.479-1.1671-.479-.91854.0011-1.66274.747-1.66329 1.667.00017.6688.39843 1.2731 1.01235 1.536h.005.01098zm9.41561-2.507c.6711.2823 1.4474.0948 1.9163-.4628.4688-.5576.5213-1.3558.1294-1.9702-.1227-.1913-.2831-.3556-.4712-.483-.5168-.3495-1.1854-.3803-1.7321-.0798s-.8798.8819-.863 1.5063.3807 1.187.9428 1.4575h-.012l.0299.013.02.008h-.006c.0143.0046.0283.01.0419.016zm-4.3439-4.0349c-.3982-.0007-.7411.2811-.8182.6724-.0772.3913.1331.7825.5017.9335.3685.151.7922.0194 1.011-.3139.2187-.3333.1711-.7751-.1134-1.054-.0742-.0732-.1616-.1316-.2576-.172l-.018-.008-.0269-.01c-.0894-.032-.1837-.0482-.2786-.048zm3.7439-4.16603c-.6388-.00158-1.175.48176-1.2405 1.11825-.0655.6365.361 1.21922.9867 1.34817.6257.12896 1.2473-.23777 1.438-.84845.1907-.61069-.1114-1.2668-.699-1.51796h-.01c-.1503-.06431-.3117-.09829-.4752-.10001zm-11.23167 3.33299c-.4593 0-.83164-.37295-.83164-.833s.37234-.83299.83164-.83299.83164.37294.83164.83299c-.00055.45983-.37256.83245-.83164.833zm-1.24796-2.49999c-.68924 0-1.24797-.55964-1.24797-1.24999s.55873-1.24999 1.24797-1.24999c.68923 0 1.24796.55964 1.24796 1.24999-.0011.6899-.55919 1.24889-1.24796 1.24999zm4.99186-1.66699c-.68924 0-1.24797-.55964-1.24797-1.24999s.55873-1.24999 1.24797-1.24999c.68923 0 1.24796.55964 1.24796 1.24999 0 .69051-.55857 1.25044-1.24796 1.25099zm-2.91126-1.66599c-.45917 0-.83146-.37274-.83164-.83266s.3718-.83296.83098-.83333c.45917-.00037.83176.37208.83231.832 0 .46021-.37218.83344-.83165.83399z" fill="#000"/></svg>