<svg fill="none" height="24" viewBox="0 0 24 24" width="24" xmlns="http://www.w3.org/2000/svg"><path d="m5.23779 14.9023c-1.28772-.3372-2.23779-1.5088-2.23779-2.9023 0-1.0867.57781-2.03847 1.44296-2.56481.32801-.19955.55704-.55124.55704-.93519 0-3.03757 2.46243-5.5 5.5-5.5 1.1319 0 2.184.34194 3.0585.92817.3719.24928.8553.27506 1.2875.15824.2085-.05635.4277-.08641.654-.08641 1.3807 0 2.5 1.11929 2.5 2.5 0 .33774.1969.66713.5096.79468 1.4608.59577 2.4904 2.03031 2.4904 3.70532 0 1.5603-.8933 2.9119-2.1964 3.5713l-.6941 5.5527c-.0626.5005-.488.876-.9923.876h-10.23442c-.50432 0-.92972-.3755-.99228-.876zm1.76221-6.4023c0 1.18934-.6908 2.1409-1.51754 2.6438-.2936.1787-.48246.4963-.48246.8562 0 .5523.44772 1 1 1h11c1.1046 0 2-.8954 2-2 0-.8344-.5115-1.55401-1.2456-1.85342-1.1545-.47083-1.7544-1.59657-1.7544-2.64658 0-.27614-.2239-.5-.5-.5-.0484 0-.0922.00634-.1321.01712-.8108.21915-1.9348.23473-2.923-.42766-.5554-.37231-1.2218-.58946-1.9449-.58946-1.933 0-3.5 1.567-3.5 3.5zm.26556 6.5.5 4h1.23444v-4zm5.73444 4v-4h-2v4zm2 0h1.2344l.5-4h-1.7344z" fill="#000"/></svg>