<svg fill="none" height="24" viewBox="0 0 24 24" width="24" xmlns="http://www.w3.org/2000/svg"><path clip-rule="evenodd" d="m18.248 16.9972c-.0824.0019-.1651.0028-.248.0028-6.0751 0-11-4.9249-11-11.00001 0-.0829.00092-.16559.00275-.24807-1.83064 1.46659-3.00275 3.72147-3.00275 6.24808 0 4.4182 3.58172 8 8 8 2.5266 0 4.7814-1.1721 6.248-3.0028zm1.2181-2.116c-.4771.0781-.9669.1188-1.4661.1188-4.9706 0-9-4.0294-9-9.00001 0-.49925.04065-.989.11882-1.46613.13212-.80641.37142-1.57676.7028-2.29594-.86136.19136-1.68089.49381-2.4428.89154-3.19667 1.66875-5.37882 5.01479-5.37882 8.87054 0 5.5228 4.47715 10 10 10 3.8557 0 7.2017-2.1822 8.8705-5.3788.3977-.7619.7002-1.5815.8915-2.4428-.7191.3314-1.4895.5707-2.2959.7028z" fill="#000" fill-rule="evenodd"/></svg>