<svg fill="none" height="24" viewBox="0 0 24 24" width="24" xmlns="http://www.w3.org/2000/svg"><path d="m12 22c-5.52285 0-10-4.4772-10-10 0-5.52285 4.47715-10 10-10 5.5228 0 10 4.47715 10 10-.0061 5.5203-4.4797 9.9939-10 10zm0-18c-4.41828 0-8 3.58172-8 8 0 4.4183 3.58172 8 8 8 4.4183 0 8-3.5817 8-8-.005-4.41622-3.5838-7.99504-8-8zm-2 14c-.014 0-.14-.005-1-.005h-1v-.024c0-.011 0-.025 0-.042 0-.033 0-.078.007-.133.011-.149.028-.291.052-.432.0749-.4552.21641-.897.42-1.311.27797-.5717.70235-1.0595 1.23-1.414l.014-.009.016-.012.015-.008h.006.007.005.007l.011-.007c.6648-.406 1.4311-.6151 2.21-.603.8096-.0215 1.6071.1996 2.29.635.5272.355.9514.8427 1.23 1.414.2044.4136.3456.8555.419 1.311.032.188.046.339.052.432 0 .044.006.088.007.133v.042.02s-.04 0-1 0c-.906 0-1 0-1 0s0-.029 0-.059c0-.055-.013-.14-.031-.246-.0419-.2591-.1214-.5108-.236-.747-.1238-.2597-.3139-.4821-.551-.645-.3564-.2103-.7667-.3112-1.18-.29-.4143-.0182-.8247.0862-1.18.3-.2368.1632-.4268.3856-.551.645-.1144.2363-.1938.4879-.236.747-.0142.0814-.0242.1635-.03.246v.058h-.003zm-1.5-6c-.82843 0-1.5-.6716-1.5-1.5 0-.82843.67157-1.5 1.5-1.5s1.5.67157 1.5 1.5c0 .8284-.67157 1.5-1.5 1.5zm6.993-.014c-.8246 0-1.493-.6684-1.493-1.493 0-.82456.6684-1.493 1.493-1.493s1.493.66844 1.493 1.493c-.0011.8241-.6689 1.4919-1.493 1.493z" fill="#000"/></svg>