<svg fill="none" height="24" viewBox="0 0 24 24" width="24" xmlns="http://www.w3.org/2000/svg"><path d="m12.998 22h-2v-3h2zm5.364-2.222-2.121-2.121 1.414-1.414 2.122 2.122-1.413 1.413zm-12.72795 0-1.415-1.414 2.12-2.122 1.415 1.414-2.12 2.121zm6.36395-2.771c-2.76498-.0011-5.00569-2.2433-5.00495-5.0083.00073-2.76506 2.24263-5.00607 5.00765-5.0057 2.765.00037 5.0063 2.24197 5.0063 5.007-.0027 2.7649-2.244 5.0053-5.009 5.007zm0-8.014c-1.6604.0011-3.00569 1.3479-3.00495 3.0083.00073 1.6605 1.34725 3.0061 3.00765 3.0057 1.6605-.0004 3.0063-1.3465 3.0063-3.007-.0016-1.6608-1.3481-3.00645-3.009-3.007zm10 4.007h-3v-2h3zm-16.99995 0h-3v-2h3zm12.65595-5.242-1.413-1.415 2.121-2.122 1.415 1.415-2.122 2.121zm-11.31295 0-2.12-2.121 1.415-1.414 2.12 2.122-1.414 1.412zm6.65695-2.758h-2v-3h2z" fill="#000"/></svg>