<svg fill="none" height="24" viewBox="0 0 24 24" width="24" xmlns="http://www.w3.org/2000/svg"><g fill="#000"><path d="m14.8277 11.3221c-1.8644 3.1332-5.33794 4.6178-7.98109 3.5049l-3.07795 5.1729-1.76866-.9908 3.19791-5.3745c-1.6172-1.8567-1.73382-5.01266-.09788-7.76207 1.97386-3.31733 5.75157-4.78663 8.43777-3.28178.7469.41842 1.3308 1.02273 1.7421 1.74852.3178.56068.5326 1.19384.64 1.86981.2536 1.596-.0912 3.43059-1.0922 5.11302zm-.8412-4.00295c.0002-.10501-.0032-.20835-.0098-.30988-.0831-1.27476-.6854-2.26495-1.4616-2.69977-.2275-.12749-.4903-.21855-.7777-.26927v7.93757c.0688-.0597.137-.1217.2046-.1861 0-.0001 0 0 0 0 .4109-.3917.7982-.8714 1.1408-1.4471.6394-1.07463.9025-2.11302.9037-3.02545zm-3.9787 5.66635c.2209-.0741.4439-.168.6662-.2825l.0423-.0221v-8.65684c-.6558.08462-1.36407.34644-2.04229.81635v8.36019c.41853.0083.87162-.0602 1.33379-.2151zm-2.59524-.1004c.07628.0427.15652.0814.24031.1158v-7.25523c-.28749.31963-.5595.68674-.80798 1.10434-1.63686 2.75096-.80749 5.26469.56767 6.03509z"/><path d="m16.7163 14.681c-.9111.4805-1.8369.6107-2.5859.4621-1.1221.9124-2.412 1.5699-3.7546 1.8731l-2.3758 3.9929 1.76866.9908 3.07794-5.1729c2.6432 1.1129 6.1167-.3717 7.9811-3.505 1.9738-3.3173 1.3963-7.22645-1.2899-8.73129-.6721-.37653-1.4125-.56686-2.176-.58863.2827.65423.4674 1.35415.5596 2.07691.2161.05327.4157.13072.5937.23047 1.3752.77038 2.2046 3.2841.5677 6.03504-.3989.6705-.8585 1.2108-1.3454 1.6334v-4.60071c-.2128.92231-.5566 1.82731-1.0211 2.67081z"/></g></svg>