<svg fill="none" height="24" viewBox="0 0 24 24" width="24" xmlns="http://www.w3.org/2000/svg"><g fill="#000"><path d="m10.8506 6.59396c.1062-.22599.2235-.4503.352-.67203l.027-.04629.0153-.02592c.227-.38353.4779-.74219.7481-1.07424 1.0508-1.2911 2.3946-2.17975 3.7697-2.56293.0049-.00137.0098-.00274.0147-.0041 1.3031-.3596 2.6335-.26516 3.7687.37096l.0315.01782c2.6453 1.51043 3.2118 5.41677 1.264 8.73237-1.721 2.9295-4.8297 4.419-7.3608 3.6942l3.5192 5.9871-1.7443.9891-3.2549-5.5377-3.25321 5.5377-1.74764-.9917 4.32635-7.3643c-.8939-1.0394-1.3238-2.4856-1.2462-4.0399.0492-.98532.3023-2.01408.7705-3.01014zm6.9375-2.54521v7.91595c.4747-.4207.9233-.9571 1.314-1.6221 1.6231-2.76296.7902-5.26757-.5481-6.02693-.2231-.1266-.4819-.21698-.7659-.26692zm-1.009 8.62525v-8.6382c-.647.08671-1.3472.35076-2.018.82525v8.34025c.6224.0105 1.3242-.1535 2.018-.5273zm-4.018-.477c.1495.2045.3177.3795.4991.5205.0831.0646.1689.1221.2569.172.0479.0272.0974.0527.1484.0764.0243.0114.049.0223.074.0329l.0126.0053v-7.22993c-.2781.31574-.5416.67755-.783 1.08845l-.0152.02596-.0226.03904c-.0602.10485-.1169.2093-.1702.31329-1.0443 2.03798-.7756 3.89479 0 4.95609z"/><path d="m9.42244 5.00587c-.7285-.56672-1.50226-.87556-2.21171-.97061v8.60724c.49935.2691 1.00286.4293 1.47774.4937.08354.1968.17575.3897.27677.5783l-.79882 1.3598c-1.90026-.3617-3.79945-1.7079-5.0103-3.768-1.94658-3.31168-1.37708-7.21424 1.27201-8.71655 1.84212-1.04467 4.20474-.65362 6.12777.79513-.3909.46026-.74392.95538-1.05077 1.4777-.02796.04759-.05552.09535-.08269.14329zm-4.5266 5.31393c.38895.6617.83544 1.1956 1.30786 1.6145v-7.88595c-.28257.04977-.54011.13972-.7621.26561-1.33331.75612-2.16469 3.2515-.54576 6.00584z"/></g></svg>