<svg fill="none" height="24" viewBox="0 0 24 24" width="24" xmlns="http://www.w3.org/2000/svg"><path d="m9.84661 15.827c2.64319 1.1129 6.11669-.3717 7.98109-3.5049 1.9738-3.31737 1.3963-7.22651-1.2899-8.73135-2.6862-1.50485-6.4639-.03555-8.43777 3.28178-1.63594 2.74941-1.51932 5.90537.09788 7.76207l-3.19791 5.3745 1.76866.9908zm6.23619-4.4824c-.3989.6704-.8585 1.2107-1.3454 1.6333v-7.93767c.2874.05072.5502.14178.7777.26927 1.3752.77038 2.2046 3.2841.5677 6.0351zm-4.4088 2.856v-8.36019c.6782-.46991 1.3865-.73173 2.0423-.81635v8.65694c-.7011.3698-1.411.5321-2.0423.5196zm-1.0211-.1997c-.0838-.0344-.1641-.0731-.2403-.1158-1.3752-.7704-2.20457-3.2841-.56771-6.03509.24851-.4176.52051-.78471.80801-1.10434z" fill="#000"/></svg>