<svg fill="none" height="24" viewBox="0 0 24 24" width="24" xmlns="http://www.w3.org/2000/svg"><path d="m21 21h-7v-2h7v-14h-18v3h-2v-3c0-1.10457.89543-2 2-2h18c1.1046 0 2 .89543 2 2v14c0 1.1046-.8954 2-2 2zm-9 0h-2c.005-2.3876-.94528-4.6781-2.639-6.361-1.68279-1.6939-3.97331-2.6442-6.361-2.639v-2.00004c2.91792-.00772 5.71779 1.15164 7.776 3.22004 2.071 2.0584 3.232 4.8601 3.224 7.78zm-3.99997 0h-2.00003c.00273-1.3265-.52513-2.599-1.466-3.534-.93492-.9411-2.20748-1.4689-3.534-1.466v-2c1.85776-.0056 3.64056.7322 4.951 2.049 1.31673 1.3105 2.05454 3.0933 2.04903 4.951zm-4.00003 0h-3v-3c1.65685 0 3 1.3431 3 3z" fill="#000"/></svg>