<svg fill="none" height="24" viewBox="0 0 24 24" width="24" xmlns="http://www.w3.org/2000/svg"><path d="m12 22c-5.52033-.006-9.99394-4.4796-10-10v-.2c.10993-5.49545 4.63459-9.87203 10.1307-9.7991 5.4961.07292 9.903 4.568 9.8671 10.0645-.0359 5.4964-4.5012 9.9335-9.9978 9.9346zm-.016-2h.016c4.4167-.0044 7.9942-3.5873 7.992-8.004-.0022-4.41669-3.5833-7.99598-8-7.99598-4.41672 0-7.99779 3.57929-8 7.99598-.00221 4.4167 3.57529 7.9996 7.992 8.004zm3.016-4h-2v-7.99998h2zm-4 0h-2v-7.99998h2z" fill="#000"/></svg>