<svg fill="none" height="24" viewBox="0 0 24 24" width="24" xmlns="http://www.w3.org/2000/svg"><path d="m12 22c-4.561 0-8-1.935-8-4.5v-11.49997h.047c.34972-1.29975 1.28786-2.36076 2.535-2.867 1.69619-.78521 3.5493-1.17273 5.418-1.133 4.561 0 8 1.935 8 4.5-.001.16776-.0171.3351-.048.5h.048v10.49997c0 2.565-3.439 4.5-8 4.5zm-6.223-12.60597v8.10597c0 1.019 2.423 2.5 6.223 2.5s6.222-1.481 6.222-2.5v-8.10597c-1.8749 1.12617-4.0363 1.68407-6.222 1.60597-2.18602.078-4.3477-.4799-6.223-1.60597zm6.223-5.394c-3.8 0-6.223 1.481-6.223 2.5s2.423 2.5 6.223 2.5 6.222-1.481 6.222-2.5-2.422-2.5-6.222-2.5z" fill="#000"/></svg>