<svg fill="none" height="24" viewBox="0 0 24 24" width="24" xmlns="http://www.w3.org/2000/svg"><path d="m12 22c-4.336 0-8-2.035-8-4.444v-11.112c0-2.409 3.664-4.444 8-4.444s8 2.035 8 4.444v11.112c0 2.409-3.663 4.444-8 4.444zm-6-7.1v2.659c.07.553 2.309 2.222 6 2.222s5.931-1.674 6-2.228v-2.653c-1.8206 1.0554-3.8961 1.5905-6 1.547-2.10394.0436-4.17942-.4916-6-1.547zm0-5.559v2.659c.07.553 2.309 2.222 6 2.222s5.931-1.674 6-2.228v-2.653c-1.8205 1.0558-3.896 1.5913-6 1.548-2.10404.0433-4.17954-.4922-6-1.548zm6-5.119c-3.692 0-5.931 1.674-6 2.229.07.549 2.311 2.215 6 2.215s5.931-1.674 6-2.228c-.07-.551-2.311-2.216-6-2.216z" fill="#000"/></svg>