<svg fill="none" height="24" viewBox="0 0 24 24" width="24" xmlns="http://www.w3.org/2000/svg"><g fill="#000"><path d="m8.41421.414185-1.41421 1.414215 1.1716 1.1716h-4.1716c-.553 0-1 .44215-1 .98915v2.55696c0 .52524.211 1.02872.586 1.39965l6.12111 6.05474c.18753.1855.29289.4371.29289.6994v6.3097c0 .7353.7823 1.2135 1.4472.8847l2-.9892c.3388-.1675.5528-.51.5528-.8847v-5.3205c0-.2623.1054-.5139.2929-.6994l2.4529-2.4263 2.9821 2.9821 1.4142-1.4142z"/><path d="m20.414 7.94576-.8244.81544-5.7612-5.7612h6.1716c.553 0 1 .44215 1 .98916v2.55695c0 .52524-.211 1.02872-.586 1.39965z"/></g></svg>