<svg fill="none" height="24" viewBox="0 0 24 24" width="24" xmlns="http://www.w3.org/2000/svg"><g fill="#000"><path d="m8.41417.414185-1.41422 1.414215 1.17167 1.17166h-4.17162c-.553 0-1 .447-1 1v2.59c0 .523.213 1.037.583 1.407l5.417 5.41704v7.586c0 .347.18.668.475.851.16.099.342.149.525.149.153 0 .306-.035.447-.105l4-2c.339-.17.553-.516.553-.895v-5.586l1.7928-1.7928 2.9351 2.935 1.4142-1.4142zm6.96463 9.793115-2.0858 2.0858c-.188.187-.293.441-.293.707v5.382l-2 1v-6.382c0-.266-.105-.52-.293-.707l-5.707-5.70304v-1.59h5.1716z"/><path d="m20 3.00006h-6.1716l2 2h3.1726l.002 1.583-.7958.79579 1.414 1.414.7958-.79579c.37-.37.583-.884.583-1.407v-2.59c0-.553-.447-1-1-1z"/></g></svg>