<svg fill="none" height="24" viewBox="0 0 24 24" width="24" xmlns="http://www.w3.org/2000/svg"><path d="m16 19c-1.2134 0-2.3073-.7309-2.7716-1.8519-.4644-1.1211-.2077-2.4114.6503-3.2694s2.1483-1.1147 3.2694-.6503c1.121.4643 1.8519 1.5582 1.8519 2.7716 0 .7956-.3161 1.5587-.8787 2.1213s-1.3257.8787-2.1213.8787zm-8 0c-1.65685 0-3-1.3431-3-3s1.34315-3 3-3 3 1.3431 3 3c0 .7956-.3161 1.5587-.8787 2.1213-.56259.5626-1.32565.8787-2.1213.8787zm8-8c-1.6569 0-3-1.34315-3-3s1.3431-3 3-3 3 1.34315 3 3-1.3431 3-3 3zm-8 0c-1.65685 0-3-1.34315-3-3s1.34315-3 3-3 3 1.34315 3 3c0 .79565-.3161 1.55871-.8787 2.1213-.56259.5626-1.32565.8787-2.1213.8787z" fill="#000"/></svg>