<svg fill="none" height="24" viewBox="0 0 24 24" width="24" xmlns="http://www.w3.org/2000/svg"><path d="m18 20c-1.1046 0-2-.8954-2-2s.8954-2 2-2 2 .8954 2 2-.8954 2-2 2zm-6 0c-1.1046 0-2-.8954-2-2s.8954-2 2-2 2 .8954 2 2-.8954 2-2 2zm-6 0c-1.10457 0-2-.8954-2-2s.89543-2 2-2 2 .8954 2 2-.89543 2-2 2zm12-6c-1.1046 0-2-.8954-2-2s.8954-2 2-2 2 .8954 2 2c0 .5304-.2107 1.0391-.5858 1.4142s-.8838.5858-1.4142.5858zm-6 0c-1.1046 0-2-.8954-2-2s.8954-2 2-2 2 .8954 2 2c0 .5304-.2107 1.0391-.5858 1.4142s-.8838.5858-1.4142.5858zm-6 0c-1.10457 0-2-.8954-2-2s.89543-2 2-2 2 .8954 2 2c0 .5304-.21071 1.0391-.58579 1.4142-.37507.3751-.88378.5858-1.41421.5858zm12-6c-1.1046 0-2-.89543-2-2s.8954-2 2-2 2 .89543 2 2c0 .53043-.2107 1.03914-.5858 1.41421-.3751.37508-.8838.58579-1.4142.58579zm-6 0c-1.1046 0-2-.89543-2-2s.8954-2 2-2 2 .89543 2 2c0 .53043-.2107 1.03914-.5858 1.41421-.3751.37508-.8838.58579-1.4142.58579zm-6 0c-1.10457 0-2-.89543-2-2s.89543-2 2-2 2 .89543 2 2c0 .53043-.21071 1.03914-.58579 1.41421-.37507.37508-.88378.58579-1.41421.58579z" fill="#000"/></svg>