<svg fill="none" height="24" viewBox="0 0 24 24" width="24" xmlns="http://www.w3.org/2000/svg"><path d="m5.124 12.1136.00269.0128c.38228 1.8149 1.60545 3.3731 3.33654 4.16l3.53677 1.6076v-1.894h2c2.7614 0 5-2.2386 5-5v-1c0-2.76142-2.2386-5-5-5h-4c-2.76142 0-5 2.23858-5 5v1c0 .3804.04211.7485.12115 1.1009zm8.876 8.8864-6.36438-2.8929c-2.31775-1.0535-3.95435-3.1394-4.46599-5.5685-.11104-.4951-.16963-1.01-.16963-1.5386v-1c0-3.86599 3.13401-7 7-7h4c3.866 0 7 3.13401 7 7v1c0 3.866-3.134 7-7 7z" fill="#000"/></svg>