<svg fill="none" height="24" viewBox="0 0 24 24" width="24" xmlns="http://www.w3.org/2000/svg"><path d="m8.05135 17.8285.65351.3493c1.01275.5415 2.14374.8239 3.29214.8222h.003c3.8661 0 7-3.1339 7-7 0-3.86613-3.1339-7-7-7-3.86612 0-6.99999 3.13387-6.99999 7v.003c-.00173 1.1484.28072 2.2794.82216 3.2921l.34938.6535-.53722 2.4171zm-5.05134 3.1715 1.0584-4.7619c-.69702-1.3038-1.06063-2.7597-1.0584-4.2381 0-4.9707 4.0293-9 8.99999-9 4.9707 0 9 4.0293 9 9s-4.0293 9-9 9c-1.4784.0022-2.93434-.3614-4.23809-1.0584z" fill="#000"/></svg>