<svg fill="none" height="24" viewBox="0 0 24 24" width="24" xmlns="http://www.w3.org/2000/svg"><g fill="#000"><path d="m9.87868 13.5355-1.41421-1.4142 2.12133-2.12131-2.12133-2.12132 1.41421-1.41421 2.12132 2.12132 2.1213-2.12132 1.4142 1.41421-2.1213 2.12132 2.1213 2.12131-1.4142 1.4142-2.1213-2.1213z"/><path d="m3 5v16l4.8-3.6c.34582-.2604.76713-.4008 1.2-.4h10c1.1046 0 2-.8954 2-2v-10c0-1.10457-.8954-2-2-2h-14c-1.10457 0-2 .89543-2 2zm2 12v-12h14v10h-10.666c-.43293-.0012-.85436.1393-1.2.4z"/></g></svg>