<svg fill="none" height="24" viewBox="0 0 24 24" width="24" xmlns="http://www.w3.org/2000/svg"><g fill="#000"><path d="m7 14c-2.76142 0-5-2.2386-5-5 0-2.76142 2.23858-5 5-5s5 2.23858 5 5c0 2.7614-2.23858 5-5 5zm-3-4h2.00001v2h2v-2h1.99999v-2h-1.99999v-2h-2v2h-2.00001z"/><path d="m20 14h-8.101c.5859-.5741 1.0713-1.2504 1.4274-2h6.6736c1.1046 0 2 .8954 2 2v4c0 1.1046-.8954 2-2 2h-16c-1.10457 0-2-.8954-2-2v-4c0-.0331.0008-.0659.00239-.0986.5736.5848 1.24904 1.0694 1.99761 1.425v2.6736h16z"/></g></svg>