<svg fill="none" height="24" viewBox="0 0 24 24" width="24" xmlns="http://www.w3.org/2000/svg"><path d="m14.0002 22h-10.00001c-.53592.0186-1.05552-.1861-1.43471-.5653-.37918-.3792-.58391-.8988-.56529-1.4347v-10c-.01862-.53592.18611-1.05552.56529-1.4347.37919-.37919.89879-.58392 1.43471-.56529h4v-4c-.01862-.53593.18611-1.05553.56529-1.43471.37919-.37919.89879-.58392 1.43472-.56529h10c.5359-.01863 1.0555.1861 1.4347.56529.3792.37918.5839.89878.5653 1.43471v9.99999c.0183.5358-.1865 1.0553-.5656 1.4344s-.8986.5839-1.4344.5656h-4v4c.0183.5358-.1865 1.0553-.5656 1.4344s-.8986.5839-1.4344.5656zm-10.00001-12v10h10.00001v-4h-4c-.53585.0183-1.05527-.1865-1.43439-.5656s-.58394-.8986-.56562-1.4344v-4zm6.00001-5.99999v9.99999h10v-9.99999z" fill="#000"/></svg>