<svg fill="none" height="24" viewBox="0 0 24 24" width="24" xmlns="http://www.w3.org/2000/svg"><g fill="#000"><path d="m16.3725 11.6213c1.5687 0 2.6275 1.0919 2.6275 2.7096 0 1.4559-1.2157 2.6691-2.8627 2.6691-1.804 0-3.1373-1.4559-3.1373-3.6801 0-5.05519 3.6863-7.07725 6-7.3199v2.22426c-1.5686.28309-3.3333 1.86034-3.4118 3.59924.0785-.0404.3922-.2022.7843-.2022z"/><path d="m8.37255 11.6213c1.56863 0 2.62745 1.0919 2.62745 2.7096 0 1.4559-1.21569 2.6691-2.86275 2.6691-1.80392 0-3.13725-1.4559-3.13725-3.6801 0-5.05519 3.68627-7.07725 6-7.3199v2.22426c-1.56863.28309-3.33333 1.86034-3.41176 3.59924.07843-.0404.39215-.2022.78431-.2022z"/></g></svg>