<svg fill="none" height="24" viewBox="0 0 24 24" width="24" xmlns="http://www.w3.org/2000/svg"><g fill="#000"><path d="m10 4v7h-6v-7h-2v16h2v-7h6v7h2v-16z"/><path d="m21.7287 10 .0022-2h-7.2309v2h4.3784l-3.1766 3.2829 1.4069 1.5155c.2562-.1186.5468-.1862.8547-.1862 1.0398 0 1.8837.768 1.8837 1.7143s-.8439 1.7143-1.8837 1.7143c-.9171 0-1.6814-.5966-1.8493-1.3861l-2.1141.3742c.3606 1.6927 1.9978 2.9711 3.9634 2.9711 2.2293 0 4.0366-1.6447 4.0366-3.6735 0-1.6917-1.2562-3.117-2.9677-3.5432z"/></g></svg>