<svg fill="none" height="24" viewBox="0 0 24 24" width="24" xmlns="http://www.w3.org/2000/svg"><g fill="#000"><path d="m10 4v7h-6v-7h-2v16h2v-7h6v7h2v-16z"/><path d="m21.7451 9.92v-1.92h-6.1178l-1.142 6.0902 1.8456.8679c.3742-.4378.9482-.7181 1.5906-.7181 1.1267 0 2.0392.8592 2.0392 1.92s-.9125 1.92-2.0392 1.92c-.9309 0-1.716-.5875-1.9608-1.3901l-1.9607.529c.4884 1.6061 2.0586 2.7811 3.9215 2.7811 2.2534 0 4.0785-1.7184 4.0785-3.84s-1.8251-3.84-4.0785-3.84c-.3661 0-.7209.0451-1.0574.1306l.4731-2.5306z"/></g></svg>