<svg fill="none" height="24" viewBox="0 0 24 24" width="24" xmlns="http://www.w3.org/2000/svg"><path d="m19.97 21.385-3.356-3.356c-1.4479.6592-3.0232.9914-4.614.973-1.6401.0204-3.26329-.3336-4.746-1.035-1.14932-.5607-2.18136-1.3352-3.041-2.282-.91251-.9781-1.6297-2.1216-2.113-3.369l-.1-.314.105-.316c.72281-1.84369 1.93926-3.45282 3.516-4.65099l-2.621-2.621 1.413-1.412 16.969 16.96899-1.41 1.414zm-12.934-12.93399c-1.27808.89592-2.28735 2.12369-2.919 3.55099 1.35442 3.1249 4.47887 5.1067 7.883 5 1.0498.0086 2.0936-.1604 3.087-.5l-1.8-1.8c-.4007.1964-.8408.299-1.287.3-1.6525-.0104-2.98963-1.3474-3-3 .00048-.4472.10309-.8884.3-1.29zm12.816 7.16099-1.392-1.391c.5856-.6621 1.0656-1.4105 1.423-2.219-1.3526-3.12641-4.4783-5.10891-7.883-4.99999-.247 0-.495.009-.735.026l-1.765-1.767c.8216-.17576 1.6598-.2626 2.5-.259 1.6401-.02035 3.2633.33363 4.746 1.035 1.1493.56074 2.1814 1.3352 3.041 2.282.9121.97697 1.6293 2.11909 2.113 3.36499l.1.318-.105.316c-.4682 1.2181-1.1608 2.3375-2.042 3.3z" fill="#000"/></svg>