<svg fill="none" height="24" viewBox="0 0 24 24" width="24" xmlns="http://www.w3.org/2000/svg"><path d="m12 4c-4.41114 0-8 3.58886-8 8 0 4.4111 3.58886 8 8 8 1.4067 0 2.79-.3701 4.001-1.0708l-1.001-1.7315c-.9072.5249-1.9448.8023-3 .8023-3.30858 0-6.00001-2.6914-6.00001-6 0-3.30858 2.69143-6.00001 6.00001-6.00001 3.3086 0 6 2.69143 6 6.00001v.8711c0 .6543-.4204 1.1289-1 1.1289-.5513 0-1-.4487-1-1v-4h-1.3824c-.7035-.61458-1.6123-1.00002-2.6176-1.00002-2.20557 0-4.00002 1.79445-4.00002 4.00002 0 2.2056 1.79445 4 4.00002 4 1.0503 0 1.9999-.4153 2.7144-1.0798.5507.6545 1.3653 1.0798 2.2856 1.0798 1.6821 0 3-1.3745 3-3.1289v-.8711c0-4.41114-3.5889-8-8-8zm0 10c-1.103 0-2-.897-2-2s.897-2 2-2 2 .897 2 2-.897 2-2 2z" fill="#000"/></svg>