<svg fill="none" height="24" viewBox="0 0 24 24" width="24" xmlns="http://www.w3.org/2000/svg"><path d="m12 22c-2.65289.0024-5.19782-1.0504-7.0737-2.9263s-2.92868-4.4208-2.9263-7.0737v-.2c.08179-4.00777 2.5478-7.57984 6.26637-9.07693 3.71853-1.4971 7.97173-.63017 10.80763 2.20294 2.8625 2.86008 3.7192 7.16329 2.1703 10.90159-1.5488 3.7383-5.1978 6.1748-9.2443 6.1724zm0-8.59 2.59 2.59 1.41-1.41-2.59-2.59 2.59-2.58999-1.41-1.41-2.59 2.58999-2.58999-2.58999-1.41 1.41 2.58999 2.58999-2.58999 2.59 1.41 1.41 2.58999-2.589z" fill="#000"/></svg>