<svg fill="none" height="24" viewBox="0 0 24 24" width="24" xmlns="http://www.w3.org/2000/svg"><path d="m11.9998 22c-4.04643.0024-7.69549-2.4341-9.24432-6.1724s-.69212-8.04154 2.17033-10.90162c2.5273-2.5273 6.21089-3.51432 9.66329-2.58926 3.4523.92505 6.1489 3.62164 7.074 7.074.925 3.45238-.062 7.13598-2.5893 9.66328-1.8725 1.881-4.4198 2.9346-7.074 2.926zm-7.99999-9.828c.04732 4.4012 3.64111 7.9375 8.04259 7.914 4.4014-.0238 7.957-3.5985 7.957-8 0-4.40151-3.5556-7.97625-7.957-8.00002-4.40148-.02354-7.99527 3.51276-8.04259 7.91402zm5.409 3.828-1.409-1.41 2.58999-2.59-2.58999-2.59002 1.41-1.41 2.58999 2.59002 2.59-2.59002 1.41 1.41-2.59 2.59002 2.59 2.59-1.409 1.41-2.591-2.59-2.58999 2.59z" fill="#000"/></svg>