<svg fill="none" height="24" viewBox="0 0 24 24" width="24" xmlns="http://www.w3.org/2000/svg"><path d="m16.577 20-5.767-5.766c-2.15613 1.4224-5.03894.9824-6.67263-1.0184-1.63368-2.0009-1.48823-4.91346.33668-6.7416 1.82781-1.8256 4.7407-1.97169 6.74195-.33811 2.0013 1.63357 2.4416 4.51671 1.019 6.67311l5.765 5.767zm-8.54295-12.986c-1.44075-.00091-2.68152 1.01602-2.96352 2.42891-.28199 1.41289.47333 2.82819 1.80404 3.38049 1.33072.5522 2.86622.0875 3.66743-1.1099.8013-1.1974.6451-2.79403-.373-3.8135-.5647-.56865-1.33351-.8877-2.13495-.886zm12.96595 1.986h-6v-2h6z" fill="#000"/></svg>