<svg fill="none" height="24" viewBox="0 0 24 24" width="24" xmlns="http://www.w3.org/2000/svg"><path d="m16.577 20-5.767-5.766c-2.15613 1.4224-5.03894.9824-6.67263-1.0185-1.63368-2.0008-1.48823-4.91337.33668-6.7415 1.82781-1.82561 4.7407-1.97169 6.74195-.33812 2.0013 1.63358 2.4416 4.51672 1.019 6.67312l5.765 5.767zm-8.54295-12.98601c-1.44075-.00091-2.68152 1.01603-2.96352 2.42891-.28199 1.4129.47333 2.8282 1.80404 3.3805 1.33072.5522 2.86622.0875 3.66743-1.1099.8013-1.1974.6451-2.79404-.373-3.8135-.5647-.56866-1.33351-.8877-2.13495-.88601zm10.96595 3.98601h-2v-2h-2v-2h2v-2h2v2h2v2h-2z" fill="#000"/></svg>