<svg fill="none" height="24" viewBox="0 0 24 24" width="24" xmlns="http://www.w3.org/2000/svg"><path d="m17.577 19-4.767-4.766c-2.1561 1.4224-5.03894.9824-6.67263-1.0184-1.63368-2.0009-1.48823-4.91346.33668-6.7416 1.82781-1.8256 4.74075-1.97169 6.74195-.33811 2.0013 1.63357 2.4416 4.51671 1.019 6.67311l4.765 4.768zm-7.543-11.986c-1.4407-.00091-2.68147 1.01602-2.96347 2.42891-.28199 1.41289.47333 2.82819 1.80404 3.38049 1.33073.5522 2.86623.0875 3.66743-1.1099.8013-1.1974.6451-2.79403-.373-3.8135-.5647-.56865-1.3335-.8877-2.135-.886z" fill="#000"/></svg>