<svg fill="none" height="24" viewBox="0 0 24 24" width="24" xmlns="http://www.w3.org/2000/svg"><path d="m18.677 19.607-5.715-5.716c-2.5424 1.8075-6.04558 1.3654-8.05915-1.0171-2.01356-2.3824-1.86571-5.91029.34013-8.11588 2.20526-2.20655 5.73352-2.35504 8.11642-.34158 2.3828 2.01345 2.8252 5.51703 1.0176 8.05956l5.715 5.716-1.414 1.414zm-9.19202-14.60699c-1.8963-.00043-3.53231 1.33069-3.91753 3.18744-.38521 1.85675.58624 3.72885 2.32621 4.48285 1.73996.7539 3.77024.1826 4.86154-1.3682 1.0914-1.55081.9438-3.65476-.3532-5.03808l.605.6-.682-.68-.012-.012c-.7482-.75282-1.7666-1.17487-2.82802-1.17201z" fill="#000"/></svg>