<svg fill="none" height="24" viewBox="0 0 24 24" width="24" xmlns="http://www.w3.org/2000/svg"><path d="m12 19c-1.6401.0204-3.2633-.3336-4.746-1.035-1.14931-.5608-2.18135-1.3353-3.041-2.282-.91057-.9789-1.62753-2.1214-2.113-3.367l-.1-.316.105-.316c.48582-1.2446 1.20124-2.38675 2.109-3.36702.85934-.94669 1.89104-1.72114 3.04-2.282 1.48271-.70141 3.1059-1.05539 4.746-1.035 1.6401-.02035 3.2633.33362 4.746 1.035 1.1493.56073 2.1814 1.33519 3.041 2.282.9123.97755 1.6295 2.12032 2.113 3.36702l.1.316-.105.316c-1.5688 4.0838-5.5208 6.7533-9.895 6.684zm0-12.00002c-3.40413-.10667-6.52858 1.87509-7.883 5.00002 1.3542 3.1251 4.47879 5.1069 7.883 5 3.4041.1064 6.5284-1.8753 7.883-5-1.3526-3.12644-4.4783-5.10894-7.883-5.00002zm0 8.00002c-1.4427.0095-2.69063-1.0027-2.97903-2.4162-.28841-1.4136.4633-2.8338 1.79443-3.39016 1.3311-.55636 2.8698-.09353 3.6731 1.10486.8034 1.1984.6469 2.7976-.3735 3.8175-.5587.5652-1.3202.8835-2.115.884z" fill="#000"/></svg>