<svg fill="none" height="24" viewBox="0 0 24 24" width="24" xmlns="http://www.w3.org/2000/svg"><g fill="#000"><path d="m12.2495 19.26c-1.3467 0-2.49338-.3067-3.44004-.92-.93334-.6133-1.58667-1.4533-1.96-2.52l1.98-1.16c.56 1.5733 1.72004 2.36 3.48004 2.36.8666 0 1.5133-.1667 1.94-.5.44-.3467.66-.7933.66-1.34 0-.4997-.1773-.893-.5317-1.18h-10.3778v-2h16v2h-2.9279c.0916.3399.1374.7199.1374 1.14 0 1.2667-.46 2.2733-1.38 3.02-.9067.7333-2.1 1.1-3.58 1.1z"/><path d="m7.76946 10.42c.10097.2079.22443.4012.37038.58h4.71446c-.0957-.0317-.1973-.0651-.3048-.1-1.0667-.3333-1.8067-.6467-2.22-.94001-.40004-.30667-.60004-.72-.60004-1.24 0-.53333.2-.95333.60004-1.26.4-.32.9333-.48 1.6-.48 1.3733 0 2.3533.65333 2.94 1.96l1.94-1.12c-.4534-.96-1.1-1.71333-1.94-2.26s-1.82-.82-2.94-.82c-1.24 0-2.30004.36667-3.18004 1.1-.88.72-1.32 1.7-1.32 2.94 0 .62667.11333 1.17333.34 1.64001z"/></g></svg>