<svg fill="none" height="24" viewBox="0 0 24 24" width="24" xmlns="http://www.w3.org/2000/svg"><g fill="#000"><path d="m11 7c0 2.20914-1.79086 4-4 4s-4-1.79086-4-4 1.79086-4 4-4 4 1.79086 4 4zm-2 0c0-1.10457-.89543-2-2-2s-2 .89543-2 2 .89543 2 2 2 2-.89543 2-2z"/><path d="m21 11.5c0 1.933-1.567 3.5-3.5 3.5s-3.5-1.567-3.5-3.5 1.567-3.5 3.5-3.5 3.5 1.567 3.5 3.5zm-2 0c0-.8284-.6716-1.5-1.5-1.5s-1.5.6716-1.5 1.5.6716 1.5 1.5 1.5 1.5-.6716 1.5-1.5z"/><path d="m10 21v-4c0-1.6569-1.34315-3-3-3s-3 1.3431-3 3v4h-2v-4c0-2.7614 2.23858-5 5-5s5 2.2386 5 5v4z"/><path d="m20 20.5v.5h2v-.5c0-2.4853-2.0147-4.5-4.5-4.5s-4.5 2.0147-4.5 4.5v.5h2v-.5c0-1.3807 1.1193-2.5 2.5-2.5s2.5 1.1193 2.5 2.5z"/></g></svg>