<svg fill="none" height="24" viewBox="0 0 24 24" width="24" xmlns="http://www.w3.org/2000/svg"><path d="m20 20h-16c-1.06948.032-1.96358-.8067-2-1.876v-12.249c.03641-1.06919.93068-1.90757 2-1.875h16c1.0693-.03257 1.9636.80581 2 1.875v12.25c-.037 1.0689-.9309 1.907-2 1.875zm-16-14v11.989l16 .011v-11.989zm9.43 10h-7.43c.07353-.8279.46534-1.5951 1.093-2.14.69883-.6933 1.63781-1.0908 2.622-1.11.9842.0192 1.9232.4167 2.622 1.11.6275.5451 1.0193 1.3121 1.093 2.14zm4.57-1h-3v-2h3zm-8.285-3c-.53593.0186-1.05553-.1861-1.43471-.5653-.37919-.3792-.58391-.8988-.56529-1.4347-.01832-.53584.1865-1.05526.56562-1.43438s.89854-.58394 1.43438-.56562c.5358-.01832 1.0553.1865 1.4344.56562s.5839.89854.5656 1.43438c.0186.5359-.1861 1.0555-.5653 1.4347s-.8988.5839-1.4347.5653zm8.285-1h-4v-2h4z" fill="#000"/></svg>