<svg fill="none" height="24" viewBox="0 0 24 24" width="24" xmlns="http://www.w3.org/2000/svg"><g fill="#000"><path d="m12 14c2.2091 0 4-1.7909 4-4 0-2.20914-1.7909-4-4-4-2.20914 0-4 1.79086-4 4 0 2.2091 1.79086 4 4 4zm0-6c1.1046 0 2 .89543 2 2 0 1.1046-.8954 2-2 2s-2-.8954-2-2c0-1.10457.8954-2 2-2z"/><path d="m4 22c-1.10457 0-2-.8954-2-2v-16c0-1.10457.89543-2 2-2h16c1.1046 0 2 .89543 2 2v16c0 1.1046-.8954 2-2 2zm0-18v16h3c0-2.7614 2.23858-5 5-5 2.7614 0 5 2.2386 5 5h3v-16zm11 16c0-1.6569-1.3431-3-3-3s-3 1.3431-3 3z"/></g></svg>