<svg fill="none" height="24" viewBox="0 0 24 24" width="24" xmlns="http://www.w3.org/2000/svg"><g fill="#000"><path d="m2 19h2c0-2.2091 1.79086-4 4-4 2.2091 0 4 1.7909 4 4h2c0-3.3137-2.6863-6-6-6-3.31371 0-6 2.6863-6 6z"/><path d="m4 8c0-2.20914 1.79086-4 4-4 2.2091 0 4 1.79086 4 4-.0028 2.208-1.792 3.9972-4 4-2.20914 0-4-1.7909-4-4zm2.00223-.02866c-.01565 1.09249.84834 1.99536 1.94046 2.02778 1.09212.03238 2.00814-.81762 2.05731-1.90912v-.09c0-1.10457-.89543-2-2-2-1.0926.00111-1.98211.87885-1.99777 1.97134z"/><path d="m18.339 14.9994c-.208-.185-.443-.378-.692-.582l-.047-.038-.0056-.0045c-1.156-.9432-2.5944-2.1168-2.5944-3.5755.0002-.484.1953-.94762.5413-1.28611s.8138-.52335 1.2977-.51287c.5722-.00154 1.1179.24111 1.5.667.3822-.42579.9278-.66841 1.5-.667.4834-.0094.9503.17609 1.2955.51468s.5396.8018.5395 1.2853c0 1.4648-1.4495 2.647-2.615 3.5976l-.003.0024-.057.047-.0182.0149c-.2303.1885-.4479.3667-.6428.5391z"/></g></svg>