<svg fill="none" height="24" viewBox="0 0 24 24" width="24" xmlns="http://www.w3.org/2000/svg"><g fill="#000"><path d="m7 8c0-2.76142 2.23858-5 5-5 2.7614 0 5 2.23858 5 5 0 2.7614-2.2386 5-5 5-2.76142 0-5-2.2386-5-5zm5 3c1.6569 0 3-1.34315 3-3s-1.3431-3-3-3-3 1.34315-3 3 1.3431 3 3 3z"/><path d="m6.34315 16.3431c-1.5003 1.5003-2.34315 3.5352-2.34315 5.6569h2c0-1.5913.63214-3.1174 1.75736-4.2426 1.12522-1.1253 2.65134-1.7574 4.24264-1.7574s3.1174.6321 4.2426 1.7574c1.1253 1.1252 1.7574 2.6513 1.7574 4.2426h2c0-2.1217-.8429-4.1566-2.3431-5.6569-1.5003-1.5002-3.5352-2.3431-5.6569-2.3431-2.12173 0-4.15656.8429-5.65685 2.3431z"/></g></svg>