<svg fill="none" height="24" viewBox="0 0 24 24" width="24" xmlns="http://www.w3.org/2000/svg"><path d="m4 19.001h-2c0-3.3137 2.68629-6 6-6 3.3137 0 6 2.6863 6 6h-2c0-2.2092-1.7909-4-4-4-2.20914 0-4 1.7908-4 4zm14.364-3.637-1.414-1.414c1.3129-1.3128 2.0505-3.0934 2.0505-4.95001 0-1.85664-.7376-3.63723-2.0505-4.95l1.414-1.414c3.5141 3.51461 3.5141 9.21241 0 12.72701zm-2.829-2.828-1.414-1.416c1.1698-1.17128 1.1698-3.06874 0-4.24001l1.414-1.417c1.9526 1.95261 1.9526 5.11841 0 7.07101zm-7.535-.536c-2.20914 0-4-1.7909-4-4.00001 0-2.20914 1.79086-4 4-4 2.2091 0 4 1.79086 4 4 0 1.06086-.4214 2.07831-1.1716 2.82841-.7501.7502-1.76753 1.1716-2.8284 1.1716zm0-6.00001c-1.0926.0011-1.98211.87884-1.99777 1.97134-.01565 1.09249.84834 1.99536 1.94046 2.02777 1.09212.0324 2.00814-.81762 2.05731-1.90911v.4-.49c0-1.10457-.89543-2-2-2z" fill="#000"/></svg>