<svg fill="none" height="24" viewBox="0 0 24 24" width="24" xmlns="http://www.w3.org/2000/svg"><path d="m12 22-3-3h-4c-1.10457 0-2-.8954-2-2v-13c0-1.10457.89543-2 2-2h14c1.1046 0 2 .89543 2 2v13c0 1.1046-.8954 2-2 2h-4zm-7-18v13h5l2 2 2-2h5v-13zm11 10.986h-8v-.386c.11835-2.0949 1.90424-3.7022 4-3.6 2.0958-.1022 3.8816 1.5051 4 3.6v.385zm-4-4.986c-.5359.0186-1.0555-.1861-1.4347-.56529-.3792-.37918-.58392-.89878-.5653-1.43471-.01832-.53584.1865-1.05526.5656-1.43438s.8986-.58394 1.4344-.56562c.5358-.01832 1.0553.1865 1.4344.56562s.5839.89854.5656 1.43438c.0186.53593-.1861 1.05553-.5653 1.43471-.3792.37919-.8988.58389-1.4347.56529z" fill="#000"/></svg>