<svg fill="none" height="24" viewBox="0 0 24 24" width="24" xmlns="http://www.w3.org/2000/svg"><path d="m4 19h-2c0-3.3137 2.68629-6 6-6 3.3137 0 6 2.6863 6 6h-2c0-2.2091-1.7909-4-4-4-2.20914 0-4 1.7909-4 4zm15-3h-2v-3h-3v-2h3v-3h2v3h3v2h-3zm-11-4c-2.20914 0-4-1.7909-4-4 0-2.20914 1.79086-4 4-4 2.2091 0 4 1.79086 4 4-.0028 2.208-1.792 3.9972-4 4zm0-6c-1.0926.00111-1.98211.87885-1.99777 1.97134-.01565 1.09249.84834 1.99536 1.94046 2.02778 1.09212.03238 2.00814-.81762 2.05731-1.90912v.4-.49c0-1.10457-.89543-2-2-2z" fill="#000"/></svg>