<svg width="306" height="310" viewBox="0 0 306 310" fill="none" xmlns="http://www.w3.org/2000/svg">
<path d="M154.603 140.976C158.387 143.043 163.268 138.282 165.91 142.471C168.656 146.824 163.486 150.998 163.045 154.909C162.604 158.819 163.525 163.165 160.125 164.762C156.726 166.359 155.358 163.212 151.579 162.35C147.801 161.487 143.2 164.704 140.288 159.654C137.376 154.604 142.812 154.202 143.052 149.466C143.292 144.73 140.936 140.612 144.238 138.362C147.541 136.112 150.819 138.909 154.603 140.976Z" stroke="#FF1DC0" stroke-width="2">
    <animate id="p1" attributeName="d" values="m160,160l0,0 0,0;m130,110l30,-17 30,17;m130,60l30,-17 30,17;m160,20l0,0 0,0" dur="6s" repeatCount="indefinite"/>
      <animate attributeName="stroke-width" values="0;4;4;4;0" dur="6s" repeatCount="indefinite" begin="p1.begin"/></path>
<path d="M155.839 132.897C162.669 136.628 171.481 128.034 176.25 135.595C181.206 143.452 171.874 150.988 171.078 158.047C170.282 165.105 171.945 172.951 165.808 175.834C159.671 178.716 157.202 173.036 150.381 171.479C143.56 169.922 135.255 175.729 129.999 166.613C124.742 157.497 134.555 156.771 134.988 148.222C135.422 139.672 131.168 132.239 137.13 128.178C143.091 124.117 149.008 129.165 155.839 132.897Z" stroke="#FF1DC0" stroke-width="2"/>
<path d="M157.548 121.725C168.591 127.758 182.837 113.863 190.547 126.087C198.56 138.791 183.472 150.974 182.186 162.386C180.9 173.798 183.587 186.483 173.665 191.143C163.743 195.803 159.751 186.62 148.724 184.103C137.696 181.585 124.27 190.973 115.771 176.235C107.273 161.497 123.137 160.323 123.838 146.501C124.539 132.679 117.661 120.662 127.3 114.096C136.938 107.53 146.505 115.692 157.548 121.725Z" stroke="#FF1DC0" stroke-width="2"/>
<path d="M159.404 109.589C175.023 118.121 195.172 98.4695 206.078 115.758C217.412 133.727 196.071 150.959 194.252 167.1C192.433 183.241 196.234 201.182 182.2 207.774C168.167 214.365 162.521 201.377 146.923 197.816C131.325 194.255 112.335 207.534 100.315 186.688C88.2945 165.842 110.733 164.182 111.725 144.632C112.716 125.083 102.988 108.085 116.621 98.7982C130.254 89.5114 143.785 101.056 159.404 109.589Z" stroke="#FF1DC0" stroke-width="2"/>
<path d="M161.425 96.3762C182.026 107.631 208.603 81.7102 222.987 104.513C237.936 128.213 209.789 150.942 207.389 172.232C204.989 193.522 210.003 217.186 191.493 225.88C172.983 234.573 165.536 217.442 144.963 212.746C124.39 208.049 99.3429 225.564 83.4882 198.069C67.6335 170.573 97.2296 168.383 98.5373 142.598C99.8451 116.813 87.0143 94.3928 104.996 82.1438C122.977 69.8947 140.824 85.1218 161.425 96.3762Z" stroke="#FF1DC0" stroke-width="2"/>
<path d="M162.756 87.671C186.64 100.719 217.451 70.6681 234.127 97.1046C251.458 124.581 218.826 150.931 216.044 175.613C213.262 200.295 219.074 227.73 197.615 237.809C176.156 247.888 167.522 228.028 143.671 222.583C119.82 217.137 90.7819 237.443 72.4009 205.567C54.02 173.69 88.3319 171.151 89.848 141.258C91.3642 111.364 76.489 85.3715 97.3353 71.1708C118.182 56.9701 138.872 74.6233 162.756 87.671Z" stroke="#FF1DC0" stroke-width="2"/>
<path d="M164.144 78.5982C191.449 93.5149 226.674 59.1599 245.738 89.3831C265.552 120.795 228.245 150.92 225.065 179.137C221.884 207.355 228.529 238.719 203.996 250.242C179.464 261.764 169.593 239.059 142.326 232.834C115.058 226.609 81.8608 249.823 60.847 213.381C39.8332 176.939 79.0598 174.036 80.7931 139.86C82.5265 105.685 65.5205 75.9694 89.3529 59.7346C113.185 43.4997 136.839 63.6816 164.144 78.5982Z" stroke="#FF1DC0" stroke-width="2"/>
<path d="M165.965 66.6898C197.76 84.0595 238.778 44.0548 260.977 79.2483C284.05 115.826 240.608 150.905 236.904 183.763C233.201 216.62 240.938 253.143 212.371 266.56C183.804 279.977 172.31 253.539 140.558 246.29C108.807 239.041 70.15 266.073 45.6805 223.638C21.211 181.203 66.8885 177.823 68.9068 138.027C70.9252 98.2305 51.1227 63.6286 78.8743 44.724C106.626 25.8194 134.17 49.3202 165.965 66.6898Z" stroke="#FF1DC0" stroke-width="2"/>
<path d="M167.937 53.7939C204.595 73.8201 251.886 27.6971 277.48 68.273C304.082 110.445 253.996 150.889 249.726 188.772C245.456 226.655 254.377 268.763 221.44 284.232C188.504 299.702 175.253 269.219 138.645 260.862C102.037 252.505 57.4683 283.671 29.2565 234.746C1.04459 185.82 53.708 181.923 56.035 136.041C58.362 90.1584 35.5309 50.2645 67.5268 28.4686C99.5228 6.67271 131.279 33.7677 167.937 53.7939Z" stroke="#FF1DC0" stroke-width="2"/>
<path d="M170.082 39.773C212.027 62.6874 266.138 9.91243 295.424 56.3403C325.862 104.595 268.552 150.871 263.667 194.218C258.781 237.564 268.988 285.745 231.302 303.446C193.616 321.146 178.453 286.268 136.565 276.705C94.6781 267.142 43.6813 302.803 11.4007 246.822C-20.88 190.841 39.3786 186.381 42.0413 133.882C44.7039 81.3821 18.5801 35.7346 55.1905 10.7952C91.8009 -14.1441 128.138 16.8586 170.082 39.773Z" stroke="#FF1DC0" stroke-width="2"/>
</svg>
