<svg fill="none" height="24" viewBox="0 0 24 24" width="24" xmlns="http://www.w3.org/2000/svg" xmlns:xlink="http://www.w3.org/1999/xlink"><clipPath id="a"><path d="m0 0h24v24h-24z"/></clipPath><g clip-path="url(#a)"><path d="m18.9999 20h-12.99998c-3.12563.0018-5.729111-2.3962-5.9836413-5.5114-.2545297-3.1153 1.9251613-5.90407 5.0096413-6.40961 1.41971-2.51711 4.08411-4.07549 6.97398-4.07906 1.802-.00681 3.5525.60136 4.962 1.72406 1.3841 1.09786 2.3681 2.62098 2.8 4.33401 2.5839.397 4.4258 2.7175 4.226 5.3241-.1997 2.6066-2.3738 4.6193-4.988 4.6179zm-7-14.00002c-2.16827.00257-4.16731 1.17211-5.23198 3.06101l-.468.839-.94901.15501c-2.04971.3434-3.49499 2.1993-3.32578 4.2707.1692 2.0714 1.89651 3.6681 3.97479 3.6743h12.99998c1.5686.0016 2.8736-1.2054 2.9942-2.7693.1206-1.564-.9839-2.9568-2.5342-3.1957l-1.316-.2-.322-1.292c-.6647-2.6732-3.0674-4.54805-5.822-4.54302zm0 10.00002-3.99998-4h2.54998v-3.00001h2.9v3.00001h2.55z" fill="#000"/></g></svg>