<svg fill="none" height="24" viewBox="0 0 24 24" width="24" xmlns="http://www.w3.org/2000/svg" xmlns:xlink="http://www.w3.org/1999/xlink"><clipPath id="a"><path d="m0 0h24v24h-24z"/></clipPath><g clip-path="url(#a)"><path d="m18.9699 21.971-1.97-1.971h-10.99998c-3.12563.0019-5.729111-2.3962-5.9836413-5.5114-.2545297-3.1152 1.9251613-5.90406 5.0096413-6.4096l.019-.034-3.045-3.045 1.415-1.414 16.96998 16.97-1.414 1.414zm-12.15698-12.157-1.465.239c-2.05588.338-3.50799 2.1976-3.33762 4.2741.17036 2.0765 1.90613 3.6745 3.98962 3.6729h8.99998zm14.98698 9.33-1.459-1.458c1.1688-.5833 1.8258-1.8559 1.6245-3.1466-.2013-1.2906-1.2146-2.3027-2.5055-2.5024l-1.316-.2-.322-1.291c-.4418-1.76928-1.6644-3.24157-3.3223-4.00108s-3.5713-.72379-5.19968.09708l-1.471-1.469c2.17228-1.32769 4.84678-1.54218 7.20288-.57767 2.3561.96452 4.1124 2.99286 4.7301 5.46267 2.0335.3131 3.6676 1.8398 4.1179 3.8473.4503 2.0076-.375 4.086-2.0799 5.2377z" fill="#000"/></g></svg>