<svg fill="none" height="24" viewBox="0 0 24 24" width="24" xmlns="http://www.w3.org/2000/svg" xmlns:xlink="http://www.w3.org/1999/xlink"><clipPath id="a"><path d="m0 0h24v24h-24z"/></clipPath><g clip-path="url(#a)"><path d="m18.9999 20h-12.99998c-3.12563.0018-5.729111-2.3962-5.9836413-5.5114-.2545297-3.1153 1.9251613-5.90408 5.0096413-6.40962 1.41971-2.51711 4.08411-4.07548 6.97398-4.07905 1.8017-.00659 3.5517.60157 4.961 1.72405 1.3839 1.0976 2.3679 2.62034 2.8 4.33302 2.5868.3939 4.4323 2.7156 4.2327 5.3246-.1997 2.6089-2.3771 4.6227-4.9937 4.6184zm-7-14.00003c-2.16827.00257-4.16731 1.17211-5.23198 3.06101l-.468.839-.94901.15502c-2.04971.3434-3.49499 2.1993-3.32578 4.2707.1692 2.0713 1.89651 3.6681 3.97479 3.6743h12.99998c1.5686.0016 2.8736-1.2054 2.9942-2.7693.1206-1.564-.9839-2.9568-2.5342-3.1957l-1.316-.2-.322-1.292c-.6647-2.67321-3.0674-4.54806-5.822-4.54303zm-2.58698 10.41403-1.413-1.414 2.29298-2.293-2.29298-2.293 1.414-1.41402 2.29298 2.29202 2.293-2.29202 1.414 1.41402-2.293 2.293 2.293 2.293-1.414 1.413-2.294-2.292-2.29198 2.293z" fill="#000"/></g></svg>