<svg fill="none" height="24" viewBox="0 0 24 24" width="24" xmlns="http://www.w3.org/2000/svg"><path d="m18 22h-12c-1.10457 0-2-.8954-2-2v-15.99999c0-1.10457.89543-2 2-2h7c.2654-.00094.5201.10461.707.293l6 6c.1884.18693.2939.44161.293.707v10.99999c0 1.1046-.8954 2-2 2zm-12-17.99999v15.99999h10.586l-2.566-2.566c-.6099.3677-1.3079.5633-2.02.566-1.8388.0199-3.45951-1.2033-3.94455-2.9771s.28773-3.6515 1.8808-4.57c1.59305-.91856 3.60525-.64664 4.89745.6618 1.2921 1.3084 1.5387 3.3239.6003 4.9053l2.566 2.568v-9.17399l-5.414-5.414zm6 7.99999c-1.1046 0-2 .8954-2 2s.8954 2 2 2 2-.8954 2-2-.8954-2-2-2z" fill="#000"/></svg>