<svg fill="none" height="24" viewBox="0 0 24 24" width="24" xmlns="http://www.w3.org/2000/svg"><path d="m18 22h-12c-1.10457 0-2-.8954-2-2v-16.00001c0-1.10457.89543-2 2-2h7c.009-.00117.018-.00117.027 0h.006c.0094.00295.0192.00496.029.006.0882.00565.1753.02279.259.051h.042c.0185.01292.0358.0273.052.043.1089.04842.2082.11618.293.2l6 6c.0838.08478.1516.18405.2.293.009.022.016.043.023.066l.01.028c.0279.08339.0444.17018.049.258.0009.00996.0032.01973.007.029v.006c.0016.00655.0026.01325.003.02v11.00001c0 .5304-.2107 1.0391-.5858 1.4142s-.8838.5858-1.4142.5858zm-2.539-8c-.4617-.0257-.9063.1783-1.188.545-.2976.4588-.4399 1.0011-.406 1.547v.876c-.0286.5403.1277 1.0743.443 1.514.3002.3505.7461.5418 1.207.518.286.003.5698-.0493.836-.154h.008-.006c.0093-.0055.019-.0102.029-.014h.005l.016-.008.021-.01c.2183-.1004.4121-.2472.568-.43v-2.011h-1.544v.742h.637v.893l-.08.06c-.1299.0827-.2821.1235-.436.117-.2421.0191-.4751-.0961-.607-.3-.1425-.3022-.2055-.6357-.183-.969v-.883c-.0173-.3178.042-.635.173-.925.1077-.1918.3155-.3052.535-.292.167-.0139.3311.049.446.171.1192.1891.1817.4084.18.632h.885c.0018-.4468-.1512-.8803-.433-1.227-.2974-.2793-.6991-.4215-1.106-.392zm-8.461 3.5c-.02146.3961.10068.7867.344 1.1.24413.2719.59807.4189.963.4.36238.0087.7089-.1486.941-.427.25516-.3224.38483-.7263.365-1.137v-3.369h-.913v3.322c0 .528-.133.8-.4.8s-.393-.232-.393-.689zm3.327-3.429v4.866h.91v-1.715h.607c.4055.0223.8016-.1281 1.09-.414.2735-.3109.4142-.7166.392-1.13.0177-.4245-.1251-.8401-.4-1.164-.2707-.3002-.6611-.4641-1.065-.447zm2.673-10.07101v5h5zm-1.138 12.40001h-.625v-1.515h.635c.1596.0007.3074.0844.39.221.1055.1737.1563.375.146.578.0125.1891-.0374.377-.142.535-.0975.1221-.248.1896-.404.181z" fill="#000"/></svg>