<svg fill="none" height="24" viewBox="0 0 24 24" width="24" xmlns="http://www.w3.org/2000/svg"><path d="m18 22h-12c-1.10457 0-2-.8954-2-2v-16.00001c0-1.10457.89543-2 2-2h7c.009-.00117.018-.00117.027 0h.006c.0094.00295.0192.00496.029.006.0882.00565.1753.02279.259.051h.015.015.012c.0185.01292.0358.0273.052.043.1089.04842.2082.11618.293.2l6 6c.0838.08478.1516.18405.2.293.009.022.016.043.023.066l.01.028c.0279.08339.0444.17018.049.258.0009.00996.0032.01973.007.029v.006c.0016.00655.0026.01325.003.02v11.00001c0 .5304-.2107 1.0391-.5858 1.4142s-.8838.5858-1.4142.5858zm-2.458-8c-.4438-.0227-.8685.1828-1.126.545-.2831.4643-.4171 1.0042-.384 1.547v.876c-.0282.5367.1189 1.0681.419 1.514.277.348.7049.5409 1.149.518.2714.0029.5405-.0495.791-.154l.021-.009c.23-.1017.4318-.2579.588-.455v-2.009h-1.469v.742h.6v.893l-.076.06c-.122.0822-.267.1232-.414.117-.2329.0164-.4553-.0996-.575-.3-.135-.3043-.1944-.6368-.173-.969v-.883c-.0163-.3169.0401-.6333.165-.925.0965-.1889.2952-.3034.507-.292.1601-.0129.3169.0504.423.171.1127.1914.1714.4098.17.632h.842c.003-.4431-.1412-.8747-.41-1.227-.2752-.277-.6576-.4201-1.047-.392zm-4.258 1.746 1.259 3.187h.857v-4.866h-.855v3.195l-1.263-3.195h-.862v4.866h.862v-3.187zm-4.284-1.679v4.866h.862v-1.711h.575c.38811.0203.7655-.1311 1.032-.414.26186-.3165.39502-.7199.373-1.13.01819-.421-.11641-.8344-.379-1.164-.24907-.2971-.62163-.4621-1.009-.447zm6-10.06701v5h5zm-4.546 12.40001h-.592v-1.515h.6c.1539.0025.29484.0867.37.221.10017.1756.14805.3761.138.578.01212.1881-.0351.3752-.135.535-.08888.1201-.23176.188-.381.181z" fill="#000"/></svg>