<svg fill="none" height="24" viewBox="0 0 24 24" width="24" xmlns="http://www.w3.org/2000/svg"><path d="m18 22h-12c-1.10457 0-2-.8954-2-2v-16c0-1.10457.89543-2 2-2h7c.0109.00047.0217.00249.032.006.0098.00302.0198.00503.03.006.0882.00565.1753.0228.259.051l.028.009c.0227.00768.0447.01704.066.028.1089.04842.2082.11618.293.2l6 6c.0838.08479.1516.18406.2.293.01.022.017.045.025.068l.009.026c.0279.08339.0444.17018.049.258.0016.00918.0039.01822.007.027.0018.00922.0024.01862.0021.028v11c0 1.1046-.8955 2-2.0001 2zm-12-18v16h12v-10h-5c-.5523 0-1-.44772-1-1v-5zm8 1.414v2.586h2.586z" fill="#000"/></svg>