<svg fill="none" height="24" viewBox="0 0 24 24" width="24" xmlns="http://www.w3.org/2000/svg"><path d="m18 22h-12c-1.10457 0-2-.8954-2-2v-16.00001c0-1.10457.89543-2 2-2h7c.009-.00117.018-.00117.027 0h.006c.0094.00295.0192.00496.029.006.0882.00565.1753.02279.259.051h.015.015.012c.0185.01292.0358.0273.052.043.1089.04842.2082.11618.293.2l6 6c.0838.08478.1516.18405.2.293.009.022.016.043.023.066v.014.014c.0279.08339.0444.17018.049.258.0009.00996.0032.01973.007.029v.006c.0051.00615.0094.01286.013.02v11.00001c0 1.1046-.8954 2-2 2zm-12-18.00001v16.00001h12v-10.00001h-5c-.5523 0-1-.44772-1-1v-5zm8 1.414v2.586h2.586zm-1 12.58601h-2v-2h-2v-2h2v-2h2v2h2v2h-2z" fill="#000"/></svg>