<svg fill="none" height="24" viewBox="0 0 24 24" width="24" xmlns="http://www.w3.org/2000/svg"><path d="m18 22h-12c-1.10457 0-2-.8954-2-2v-16.00001c0-1.10457.89543-2 2-2h7c.009-.00117.018-.00117.027 0h.006c.0094.00295.0192.00496.029.006.0882.00565.1753.02279.259.051h.015.015.012c.0185.01292.0358.0273.052.043.1089.04842.2082.11618.293.2l6 6c.0838.08478.1516.18405.2.293.009.022.016.043.023.066l.01.028c.0279.08339.0444.17018.049.258.0009.00996.0032.01973.007.029v.006c.0016.00655.0026.01325.003.02v11.00001c0 .5304-.2107 1.0391-.5858 1.4142s-.8838.5858-1.4142.5858zm-1.739-7v4h2.239v-.67h-1.426v-3.33zm-1.4 1.258-.074 1.659v1.083h.815v-4h-1.057l-.757 2.894-.76-2.894h-1.061v4h.813v-1.083l-.08-1.667.8 2.75h.554zm-6.149-1.258v.673h.978v3.327h.815v-3.327h.995v-.673zm-2.4 2.289h1.2v1.711h.81v-4h-.81v1.618h-1.2v-1.618h-.812v4h.812zm6.688-13.28901v5h5z" fill="#000"/></svg>