<svg fill="none" height="24" viewBox="0 0 24 24" width="24" xmlns="http://www.w3.org/2000/svg"><path d="m18 22h-12c-1.10457 0-2-.8954-2-2v-16.00001c0-1.10457.89543-2 2-2h7c.009-.00117.018-.00117.027 0h.006c.0094.00295.0192.00496.029.006.0882.00565.1753.02279.259.051h.015.015.012c.0185.01292.0358.0273.052.043.1089.04842.2082.11618.293.2l6 6c.0838.08478.1516.18405.2.293.009.022.016.043.023.066l.01.028c.0279.08339.0444.17018.049.258.0009.00996.0032.01973.007.029v.006c.0016.00655.0026.01325.003.02v11.00001c0 .5304-.2107 1.0391-.5858 1.4142s-.8838.5858-1.4142.5858zm-5.884-4.6c-.0058.2963.063.5892.2.852.1269.2334.3177.4259.55.555.2367.1289.5024.1953.772.193.3657.0187.7238-.1098.994-.357.2548-.2658.3881-.6253.368-.993.0107-.3415-.0951-.6766-.3-.95-.2499-.2887-.5713-.5067-.932-.632-.1905-.0787-.3648-.1919-.514-.334-.0922-.0989-.1439-.2288-.145-.364-.0083-.1474.038-.2926.13-.408.0906-.1043.2241-.1611.362-.154.1487-.0085.2914.0598.378.181.0978.1539.144.335.132.517h.889c.0043-.2705-.0546-.5383-.172-.782-.1058-.2213-.2749-.4061-.486-.531-.2184-.1294-.4682-.1962-.722-.193-.3695-.0116-.7287.1228-1 .374-.265.2579-.4075.6165-.392.986-.0065.3184.0958.6295.29.882.2579.2922.5849.5153.951.649.1858.0719.3557.1796.5.317.101.1265.1506.2865.139.448 0 .361-.157.544-.465.544-.182.0166-.3611-.0539-.483-.19-.1132-.1831-.165-.3975-.148-.612zm-3.116.1c-.02155.3947.09711.7843.335 1.1.23474.2708.58111.4183.939.4.3557.0077.6948-.15.918-.427.2498-.3248.376-.7278.356-1.137v-3.369h-.887v3.322c0 .528-.13.8-.387.8s-.383-.232-.383-.689zm4-13.50001v5h5z" fill="#000"/></svg>