<svg fill="none" height="24" viewBox="0 0 24 24" width="24" xmlns="http://www.w3.org/2000/svg"><path d="m18 22h-12c-1.10457 0-2-.8954-2-2v-16.00001c0-1.10457.89543-2 2-2h7c.009-.00117.018-.00117.027 0h.006c.0094.00295.0192.00496.029.006.0882.00565.1753.02279.259.051h.015.015.012c.0185.01292.0358.0273.052.043.1089.04842.2082.11618.293.2l6 6c.0838.08478.1516.18405.2.293.009.022.016.043.023.066l.01.028c.0279.08339.0444.17018.049.258.0009.00996.0032.01973.007.029v.006c.0016.00655.0026.01325.003.02v11.00001c0 .5304-.2107 1.0391-.5858 1.4142s-.8838.5858-1.4142.5858zm-3.973-4.6c-.0079.2965.061.59.2.852.132.2351.3284.4276.566.555.2465.1298.5214.1962.8.193.3749.0194.7424-.1087 1.024-.357.2625-.2618.4017-.6227.383-.993.0137-.3429-.0924-.6798-.3-.953-.2607-.2902-.5921-.5079-.962-.632-.1952-.0781-.3745-.1913-.529-.334-.0947-.0976-.1481-.228-.149-.364-.0072-.1479.0405-.2932.134-.408.0948-.1048.2318-.1614.373-.154.1518-.0084.2977.0595.389.181.1008.1528.1489.3343.137.517h.907c.0048-.2711-.0559-.5394-.177-.782-.1103-.2227-.2844-.4075-.5-.531-.5741-.3103-1.2796-.2373-1.778.184-.2702.255-.4162.6148-.4.986-.0054.3199.1006.6317.3.882.2686.2938.6055.5167.981.649.1898.0716.364.1792.513.317.1035.1254.1547.2858.143.448 0 .361-.161.544-.479.544-.1872.0186-.3723-.0518-.5-.19-.1168-.1817-.1705-.3968-.153-.612zm-3.443 0c-.0079.2965.061.59.2.852.132.2351.3284.4276.566.555.2465.1296.5215.196.8.193.3749.0194.7424-.1087 1.024-.357.26-.263.3966-.6238.376-.993.0137-.3429-.0924-.6798-.3-.953-.2607-.2902-.5921-.5079-.962-.632-.1952-.0781-.3745-.1913-.529-.334-.0943-.0979-.1477-.2281-.149-.364-.0072-.1479.0405-.2932.134-.408.0951-.1051.2325-.1617.374-.154.1518-.0084.2977.0595.389.181.1011.1526.1493.3343.137.517h.913c.0042-.2711-.0565-.5392-.177-.782-.1107-.2224-.2847-.4071-.5-.531-.2269-.1289-.4841-.1945-.745-.19-.3796-.0129-.7496.121-1.033.374-.2702.255-.4162.6148-.4.986-.0058.32.1003.6319.3.882.268.294.6047.517.98.649.1901.0716.3646.1793.514.317.1035.1254.1547.2858.143.448 0 .361-.161.544-.48.544-.1872.0186-.3723-.0518-.5-.19-.1185-.1804-.1743-.3947-.159-.61zm-1.984-3.4c-.45722-.02-.89568.1832-1.176.545-.30914.4532-.45834.9965-.424 1.544v.819c-.0337.5473.10932 1.0911.408 1.551.28071.3625.72112.5646 1.179.541.4211.0246.83286-.1306 1.133-.427.26969-.3206.4211-.7241.429-1.143v.053-.073-.01c0-.015 0-.029 0-.044v-.046h-.908c.01119.2398-.04271.4783-.156.69-.12657.1396-.31289.2093-.5.187-.2111.0175-.41346-.0879-.52-.271-.12322-.3182-.17412-.6598-.149-1v-.916c-.01532-.3101.04008-.6195.162-.905.10409-.1864.30723-.295.52-.278.18828-.0219.37478.0534.495.2.11175.2185.16318.4629.149.708h.918c-.0029-.4622-.1571-.9108-.439-1.277-.28728-.3103-.69898-.4749-1.121-.448zm4.4-10.00001v5h5z" fill="#000"/></svg>