<svg fill="none" height="24" viewBox="0 0 24 24" width="24" xmlns="http://www.w3.org/2000/svg"><path d="m18 22h-12c-1.10457 0-2-.8954-2-2v-16.00001c0-1.10457.89543-2 2-2h7c.009-.00117.018-.00117.027 0h.006c.0094.00295.0192.00496.029.006.0882.00565.1753.02279.259.051h.015.015.012c.0185.01292.0358.0273.052.043.1089.04842.2082.11618.293.2l6 6c.0838.08478.1516.18405.2.293.009.022.016.043.023.066l.01.028c.0279.08339.0444.17018.049.258.0009.00996.0032.01973.007.029v.006c.0016.00655.0026.01325.003.02v11.00001c0 .5304-.2107 1.0391-.5858 1.4142s-.8838.5858-1.4142.5858zm-9-6-3 4h12l-5-7-3 4zm-.5-5c-.81802.0011-1.48432.6574-1.49777 1.4753s.63092 1.4958 1.44846 1.5238c.81755.028 1.50677-.6042 1.54931-1.4211v.29-.368c0-.8284-.67157-1.5-1.5-1.5zm4.5-7.00001v5h5z" fill="#000"/></svg>