<svg fill="none" height="24" viewBox="0 0 24 24" width="24" xmlns="http://www.w3.org/2000/svg"><path d="m18 22h-12c-1.10457 0-2-.8954-2-2v-16.00001c0-1.10457.89543-2 2-2h7c.009-.00117.018-.00117.027 0h.006c.0094.00295.0192.00496.029.006.0882.00565.1753.02279.259.051h.015.015.012c.0185.01292.0358.0273.052.043.1089.04842.2082.11618.293.2l6 6c.0838.08478.1516.18405.2.293.009.022.016.043.023.066l.01.028c.0279.08339.0444.17018.049.258.0009.00996.0032.01973.007.029v.006c.0016.00655.0026.01325.003.02v11.00001c0 .5304-.2107 1.0391-.5858 1.4142s-.8838.5858-1.4142.5858zm-3.576-8v5h.94v-2.04h1.46v-.838h-1.46v-1.281h1.636v-.841zm-3.7 0v5h1.206c.5059.0249.9958-.1811 1.332-.56.3449-.4401.5177-.9908.486-1.549v-.81c.0232-.5524-.1544-1.0945-.5-1.526-.3254-.3704-.8004-.5743-1.293-.555zm-3.724 0v5h.94v-1.759h.626c.41802.0231.82632-.1316 1.124-.426.28408-.3176.4314-.7344.41-1.16.0186-.4358-.12865-.8624-.412-1.194-.28028-.3108-.68491-.4799-1.103-.461zm6-10.00001v5h5zm-1.054 14.16201h-.282v-3.321h.342c.2429-.0143.4764.0956.62.292.1466.3033.2094.6402.182.976v.869c.022.3197-.0474.6391-.2.921-.1639.1913-.4115.2897-.662.263zm-3.361-1.762h-.646v-1.559h.655c.16352.0018.31463.0875.4.227.10822.1786.16047.3854.15.594.01254.1945-.0391.3877-.147.55-.09946.1248-.25253.1947-.412.188z" fill="#000"/></svg>