<svg fill="none" height="24" viewBox="0 0 24 24" width="24" xmlns="http://www.w3.org/2000/svg"><path d="m18 20.0001h-15c-.26541.0026-.52065-.1021-.70767-.2904s-.28993-.4443-.28533-.7097h-.007v-14c0-1.10457.89543-2 2-2h6c.2234.00021.4402.0752.616.213l2.284 1.787h5.1c1.1046 0 2 .89543 2 2v4h1c.3361 0 .6498.169.8348.4496s.2166.6355.0842.9444l-3 7c-.1576.3676-.519.6061-.919.6061zm-11.34-7.0001-2.143 5h12.824l2.143-5zm-2.66-6v7.13l1.081-2.524c.15758-.3676.51904-.606.919-.606h12v-4z" fill="#000"/></svg>