<svg fill="none" height="24" viewBox="0 0 24 24" width="24" xmlns="http://www.w3.org/2000/svg"><path d="m12 22c-5.52285 0-10-4.4772-10-10 0-5.52285 4.47715-10 10-10 5.5228 0 10 4.47715 10 10-.0061 5.5203-4.4797 9.9939-10 10zm-1-17.938c-3.27396.41403-5.95773 2.79589-6.75769 5.9975-.79997 3.2016.44805 6.5659 3.14248 8.4712 2.69441 1.9053 6.28231 1.9606 9.03421.1393l-.1.071.094-.065.059-.041.064-.045.016-.011.009-.007-5.128-5.13c-.2786-.2835-.4342-.6655-.433-1.063zm2.829 8.938 4.227 4.227.007-.008.005-.006-.01.011c1.0316-1.1905 1.686-2.6607 1.88-4.224zm-.829-8.938v6.938h6.938c-.4565-3.62589-3.3121-6.48149-6.938-6.938z" fill="#000"/></svg>