<svg width="110" height="63" viewBox="0 0 110 63" fill="none" xmlns="http://www.w3.org/2000/svg">
<g filter="url(#filter0_d_512_427)">
<path d="M23.2407 6H24.7407C24.7407 5.17157 24.0692 4.5 23.2407 4.5V6ZM23.2407 6.00032H21.7407C21.7407 6.39815 21.8988 6.77968 22.1801 7.06098L23.2407 6.00032ZM6.00001 6L6.00001 4.5C5.60219 4.5 5.22066 4.65804 4.93935 4.93934C4.65805 5.22064 4.50001 5.60218 4.50001 6L6.00001 6ZM6.00001 8.72253L6.24027 10.2032C6.96646 10.0853 7.50001 9.45822 7.50001 8.72253L6.00001 8.72253ZM6 8.72253L5.75974 7.2419C5.20585 7.33178 4.74844 7.7233 4.57417 8.25669C4.3999 8.79008 4.53792 9.37614 4.93191 9.77571L6 8.72253ZM6.00001 8.72254L7.50001 8.72255C7.50001 8.32837 7.34486 7.95004 7.0681 7.66937L6.00001 8.72254ZM6.00001 32.3148H4.50001H6.00001ZM6.00001 39.5741L4.50001 39.5741C4.50001 39.9859 4.66938 40.3797 4.9684 40.663L6.00001 39.5741ZM23.2407 55.9074L22.2091 56.9963C22.6442 57.4085 23.2829 57.5221 23.8334 57.2853C24.384 57.0485 24.7407 56.5067 24.7407 55.9074H23.2407ZM23.2407 26.2948L24.3115 25.2443C23.8847 24.8094 23.2373 24.6758 22.6733 24.9063C22.1093 25.1368 21.7407 25.6855 21.7407 26.2948H23.2407ZM53.1852 56.8151L52.1144 57.8656C52.3965 58.1531 52.7824 58.3151 53.1852 58.3151V56.8151ZM74.0555 56.8151V58.3151C74.6622 58.3151 75.2092 57.9496 75.4413 57.3891C75.6735 56.8286 75.5452 56.1834 75.1162 55.7544L74.0555 56.8151ZM50.4627 22.3335L49.3722 23.3635C49.6556 23.6635 50.05 23.8335 50.4627 23.8335V22.3335ZM35.0368 6.0002V4.5002C34.4379 4.5002 33.8964 4.85646 33.6593 5.40644C33.4223 5.95643 33.5351 6.59472 33.9463 7.03014L35.0368 6.0002ZM85.8516 25.9632L87.0997 25.1311V25.1311L85.8516 25.9632ZM87.6664 30.5002H86.1664C86.1664 31.3286 86.838 32.0002 87.6664 32.0002V30.5002ZM104 30.5002V32.0002C104.419 32.0002 104.82 31.8245 105.104 31.5159C105.388 31.2072 105.529 30.7937 105.495 30.3756L104 30.5002ZM103.91 29.1043L105.407 29.0197V29.0197L103.91 29.1043ZM97.6479 12.352L98.7086 11.2914C98.685 11.2679 98.6607 11.2451 98.6357 11.2232L97.6479 12.352ZM56.4144 29.1924V27.6924C55.8123 27.6924 55.2685 28.0524 55.0334 28.6068C54.7984 29.1612 54.9176 29.8023 55.3362 30.2352L56.4144 29.1924ZM83.1296 56.815L82.0514 57.8578C82.334 58.15 82.7231 58.315 83.1296 58.315V56.815ZM77.2848 29.1924L78.363 28.1496C78.0804 27.8574 77.6913 27.6924 77.2848 27.6924V29.1924ZM104 56.815V58.315C104.602 58.315 105.146 57.9549 105.381 57.4006C105.616 56.8462 105.497 56.205 105.078 55.7722L104 56.815ZM21.7407 6V6.00032H24.7407V6H21.7407ZM6.00001 7.5L23.2407 7.5V4.5L6.00001 4.5L6.00001 7.5ZM7.50001 8.72253L7.50001 6L4.50001 6L4.50001 8.72253L7.50001 8.72253ZM6.24026 10.2032L6.24027 10.2032L5.75975 7.2419L5.75974 7.2419L6.24026 10.2032ZM7.0681 7.66937L7.06809 7.66936L4.93191 9.77571L4.93192 9.77572L7.0681 7.66937ZM7.50001 32.3148L7.50001 8.72255L4.50001 8.72254L4.50001 32.3148H7.50001ZM7.50001 39.5741L7.50001 32.3148L4.50001 32.3148L4.50001 39.5741L7.50001 39.5741ZM24.2724 54.8184L7.03163 38.4851L4.9684 40.663L22.2091 56.9963L24.2724 54.8184ZM21.7407 26.2948L21.7407 55.9074H24.7407L24.7407 26.2948H21.7407ZM54.2559 55.7646L24.3115 25.2443L22.17 27.3453L52.1144 57.8656L54.2559 55.7646ZM74.0555 55.3151H53.1852V58.3151H74.0555V55.3151ZM22.1801 7.06098L72.9949 57.8758L75.1162 55.7544L24.3014 4.93966L22.1801 7.06098ZM51.5532 21.3036L36.1273 4.97027L33.9463 7.03014L49.3722 23.3635L51.5532 21.3036ZM79.4998 20.8335H50.4627V23.8335H79.4998V20.8335ZM87.0997 25.1311C84.9574 21.9176 81.4177 20.8335 79.4998 20.8335V23.8335C80.6065 23.8335 83.1162 24.5642 84.6035 26.7952L87.0997 25.1311ZM89.1664 30.5002C89.1664 29.9045 89.0663 28.0811 87.0997 25.1311L84.6035 26.7952C86.2385 29.2476 86.1664 30.491 86.1664 30.5002H89.1664ZM104 29.0002H87.6664V32.0002H104V29.0002ZM102.412 29.1889C102.441 29.7004 102.469 30.1904 102.505 30.6248L105.495 30.3756C105.462 29.9893 105.437 29.5426 105.407 29.0197L102.412 29.1889ZM96.5872 13.4127C101.78 18.6058 102.182 25.1228 102.412 29.1889L105.407 29.0197C105.179 24.9715 104.783 17.3657 98.7086 11.2914L96.5872 13.4127ZM80.4072 7.5002C83.9551 7.5002 86.6207 7.8123 89.069 8.68372C91.5109 9.55286 93.8447 11.0174 96.6601 13.4809L98.6357 11.2232C95.6436 8.60518 92.9868 6.89383 90.075 5.85742C87.1695 4.82328 84.1185 4.5002 80.4072 4.5002V7.5002ZM35.0368 7.5002H80.4072V4.5002H35.0368V7.5002ZM55.3362 30.2352L82.0514 57.8578L84.2078 55.7722L57.4926 28.1496L55.3362 30.2352ZM77.2848 27.6924H56.4144V30.6924H77.2848V27.6924ZM105.078 55.7722L78.363 28.1496L76.2065 30.2352L102.922 57.8578L105.078 55.7722ZM83.1296 58.315H104V55.315H83.1296V58.315Z" fill="#94E5FF"/>
</g>
<defs>
<filter id="filter0_d_512_427" x="0.5" y="0.5" width="109" height="61.8152" filterUnits="userSpaceOnUse" color-interpolation-filters="sRGB">
<feFlood flood-opacity="0" result="BackgroundImageFix"/>
<feColorMatrix in="SourceAlpha" type="matrix" values="0 0 0 0 0 0 0 0 0 0 0 0 0 0 0 0 0 0 127 0" result="hardAlpha"/>
<feOffset/>
<feGaussianBlur stdDeviation="2"/>
<feComposite in2="hardAlpha" operator="out"/>
<feColorMatrix type="matrix" values="0 0 0 0 1 0 0 0 0 1 0 0 0 0 1 0 0 0 1 0"/>
<feBlend mode="normal" in2="BackgroundImageFix" result="effect1_dropShadow_512_427"/>
<feBlend mode="normal" in="SourceGraphic" in2="effect1_dropShadow_512_427" result="shape"/>
</filter>
</defs>
</svg>
