<svg fill="none" height="24" viewBox="0 0 24 24" width="24" xmlns="http://www.w3.org/2000/svg"><path d="m19 22h-14c-.55228 0-1-.4477-1-1v-9.643c.01549-.2451.11964-.4761.293-.65l7-7.00002c.1876-.18777.4421-.29328.7075-.29328s.5199.10551.7075.29328l7 7.00002c.1877.1873.2929.4418.292.707v9.586c0 .5523-.4477 1-1 1zm-7.622-4.525c.22.18.433.356.622.525.2-.177.424-.36.662-.554l.057-.047c1.166-.951 2.618-2.134 2.618-3.6-.0002-.4837-.195-.947-.5406-1.2854-.3456-.3385-.8128-.5236-1.2964-.5136-.5722-.0016-1.1179.2411-1.5.667-.3821-.426-.9278-.6687-1.5-.667-.4834-.0094-.9503.1761-1.29548.5147-.34517.3385-.53961.8018-.53952 1.2853 0 1.461 1.44 2.636 2.6 3.58h-.001.005l.018.015h.005l.008.019.052.043.013.01h.006z" fill="#000"/></svg>