<svg fill="none" height="24" viewBox="0 0 24 24" width="24" xmlns="http://www.w3.org/2000/svg"><path d="m16 20h-11c-.55228 0-1-.4477-1-1v-7.86c0-.2593.10076-.5085.281-.695l5.5-5.69998c.18845-.19523.4482-.30551.7195-.30551s.531.11028.7195.30551l2.136 2.215-1.434 1.394-1.422-1.474-4.5 4.65998v6.455h11v1c.0013.2661-.1034.5217-.2911.7104-.1877.1886-.4428.2946-.7089.2946zm-1.658-4-1.413-1.414 2.121-2.122-2.121-2.124 1.414-1.41398 2.121 2.12098 2.121-2.12098 1.415 1.41398-2.121 2.124 2.121 2.122-1.414 1.413-2.122-2.121-2.121 2.122z" fill="#000"/></svg>