<svg fill="none" height="24" viewBox="0 0 24 24" width="24" xmlns="http://www.w3.org/2000/svg"><path d="m19 22h-14c-.55228 0-1-.4477-1-1v-9.643c.01549-.2451.11964-.4761.293-.65l7-7.00002c.1876-.18777.4421-.29328.7075-.29328s.5199.10551.7075.29328l7 7.00002c.1877.1873.2929.4418.292.707v9.586c0 .5523-.4477 1-1 1zm-7-16.17202-6 6.00002v8.172h12v-8.172zm0 12.17102c-.208-.185-.443-.378-.692-.582l-.047-.038c-1.157-.944-2.6-2.119-2.6-3.58.00016-.4841.19526-.9477.54128-1.2861.34602-.3385.81382-.5234 1.29772-.5129.5722-.0016 1.1179.2411 1.5.667.3822-.4258.9278-.6684 1.5-.667.4834-.0094.9503.1761 1.2955.5147.3452.3385.5396.8018.5395 1.2853 0 1.466-1.452 2.649-2.618 3.6l-.057.047c-.237.194-.461.377-.661.554z" fill="#000"/></svg>