<svg fill="none" height="24" viewBox="0 0 24 24" width="24" xmlns="http://www.w3.org/2000/svg"><path d="m19 22h-14c-.55228 0-1-.4477-1-1v-9.643c.01549-.2451.11964-.4761.293-.65l7-7.00002c.1876-.18777.4421-.29328.7075-.29328s.5199.10551.7075.29328l7 7.00002c.1877.1873.2929.4418.292.707v9.586c0 .5523-.4477 1-1 1zm-7-16.17202-6 6.00002v8.172h12v-8.172zm-2.122 12.24302-1.413-1.414 2.121-2.121-2.121-2.122 1.414-1.414 2.121 2.121 2.121-2.121 1.414 1.414-2.121 2.121 2.121 2.121-1.413 1.413-2.122-2.12-2.121 2.122z" fill="#000"/></svg>