<svg fill="none" height="24" viewBox="0 0 24 24" width="24" xmlns="http://www.w3.org/2000/svg"><path d="m12 22c-1.1046 0-2-.8954-2-2h4c0 1.1046-.8954 2-2 2zm8-3h-16v-2l2-1v-5.5c0-3.462 1.421-5.707 4-6.32v-2.18h3c-.6521.86394-1.0033 1.91762-1 3 0 .25138.0187.50241.056.751h-.056c-1.2201-.07903-2.39699.46665-3.125 1.449-.62245.98456-.92786 2.13638-.875 3.3v6.5h8v-6.5c0-.211-.007-.414-.021-.6.6615.1366 1.3436.139 2.006.007.011.211.015.412.015.6v5.493l2 1zm-3-11c-.6042.00073-1.1945-.18161-1.693-.523-1.1782-.80542-1.6259-2.32939-1.0705-3.6441.5554-1.3147 1.9601-2.05612 3.3589-1.77286 1.3988.28325 2.4044 1.51276 2.4046 2.93996 0 1.65685-1.3431 3-3 3z" fill="#000"/></svg>