<svg fill="none" height="24" viewBox="0 0 24 24" width="24" xmlns="http://www.w3.org/2000/svg"><path d="m12 22c-1.104-.0054-1.9991-.8961-2.01-2h4c.0024.2673-.0482.5324-.149.78-.2625.6019-.7983 1.0409-1.44 1.18h-.005-.013-.01-.011-.007c-.1169.0242-.2357.0376-.355.04zm8-3h-16v-2l2-1v-5.5c-.05268-1.41088.26594-2.81087.924-4.06.65504-1.15849 1.7747-1.98112 3.076-2.26v-2.18h4v2.18c2.579.614 4 2.858 4 6.32v5.5l2 1zm1.97-9h-2c-.0931-2.5861-1.3363-4.99549-3.39-6.57l1.42-1.43c1.1961.93048 2.1625 2.12311 2.825 3.486.685 1.41103 1.0746 2.94707 1.145 4.514zm-17.97 0h-2c.07036-1.56693.45998-3.10298 1.145-4.514.66246-1.36289 1.62895-2.55552 2.825-3.486l1.42 1.43c-2.05389 1.57432-3.29714 3.98382-3.39 6.57z" fill="#000"/></svg>