<svg fill="none" height="24" viewBox="0 0 24 24" width="24" xmlns="http://www.w3.org/2000/svg"><path d="m12 22c-1.1046 0-2-.8954-2-2h4c0 1.1046-.8954 2-2 2zm8-3h-16v-2l2-1v-5.5c-.05268-1.4109.26594-2.81089.924-4.06002.65504-1.15848 1.7747-1.98112 3.076-2.26v-2.18h3.646c-1.2996 1.45244-1.5165 3.5764-.5373 5.26155.9792 1.68514 2.9319 2.54839 4.8373 2.13845.035.357.052.72702.052 1.10002v5.5l2 1v2zm-3-11.00002c-1.5903-.00246-2.9023-1.24545-2.9907-2.83327-.0884-1.58783 1.0776-2.96874 2.6578-3.14767 1.5802-.17894 3.0255.90629 3.2944 2.47367.2689 1.56739-.732 3.07228-2.2815 3.43027-.223.05123-.4512.07706-.68.077z" fill="#000"/></svg>