<svg fill="none" height="24" viewBox="0 0 24 24" width="24" xmlns="http://www.w3.org/2000/svg"><path d="m12 22c-5.52285 0-10-4.4772-10-10 0-5.52285 4.47715-10 10-10 5.5228 0 10 4.47715 10 10-.0061 5.5203-4.4797 9.9939-10 10zm0-18c-4.3946.00111-7.96554 3.54686-7.99776 7.9413-.03222 4.3945 3.48634 7.9923 7.88046 8.0578 4.3941.0656 8.0184-3.4256 8.1173-7.8191v1.783-1.963c-.005-4.41622-3.5838-7.99504-8-8zm1.45 12.9-4.95-4.95 4.95-4.95 1.414 1.414-3.536 3.536 3.535 3.536-1.412 1.414z" fill="#000"/></svg>