<svg fill="none" height="88" viewBox="0 0 113 88" width="113" xmlns="http://www.w3.org/2000/svg"><g clip-rule="evenodd" fill="#a7fbf2" fill-rule="evenodd"><path d="m49.8061 55.0466-15.3135 22.8406c-.2961.4118-.5765.8297-.8427 1.2586-6.5408 10.5299-24.33113 11.7491-31.00002 1.8523l-.02561-.0393-.02704-.0406c-2.740147-4.131-2.760021-9.1153.00006-13.2414 5.92157-5.8616 13.59811-9.9354 21.98231-11.9745 6.7443-1.6433 14.2161-2.3937 21.3832-1.4682 1.1843.1549 2.4811.4327 3.8433.8125z"/><path d="m98.4679 87.3519c4.1811-.6126 8.0651-2.3402 10.5761-5.1825.338-.4003.655-.8202.95-1.2573 2.749-4.1034 2.771-8.7973.065-12.9092l-15.079-22.4971-25.6999-38.34328c-2.771-4.13514-7.5333-6.50273-13.0767-6.50273-5.5419 0-10.3042 2.36759-13.0751 6.50273l-3.153 4.70498-3.153 4.7037-19.3826 28.9186-15.02509 22.4161c5.92966-5.8554 13.61399-9.9563 22.00959-11.9932 6.7535-1.6416 13.9646-1.9461 21.0888-.7527 34.4761 5.772 30.3267 35.4419 52.9549 32.1919z"/></g></svg>