<svg fill="none" height="562" viewBox="0 0 571 562" width="571" xmlns="http://www.w3.org/2000/svg" xmlns:xlink="http://www.w3.org/1999/xlink"><filter id="a" color-interpolation-filters="sRGB" filterUnits="userSpaceOnUse" height="561.641" width="584.245" x=".937988" y="12.8132"><feFlood flood-opacity="0" result="BackgroundImageFix"/><feBlend in="SourceGraphic" in2="BackgroundImageFix" mode="normal" result="shape"/><feGaussianBlur result="effect1_foregroundBlur_362_551" stdDeviation="75"/></filter><filter id="b" color-interpolation-filters="sRGB" filterUnits="userSpaceOnUse" height="594.149" width="610.922" x="71.6279" y=".511353"><feFlood flood-opacity="0" result="BackgroundImageFix"/><feBlend in="SourceGraphic" in2="BackgroundImageFix" mode="normal" result="shape"/><feGaussianBlur result="effect1_foregroundBlur_362_551" stdDeviation="100"/></filter><g filter="url(#a)"><path d="m319.411 416.682c44.413-9.042 75.925-19.972 100.521-58.036 47.953-74.21-24.732-198.862-113.032-195.777-69.791 2.439-88.78 68.666-123.776 129.096-15.441 26.664-32.721 41.243-32.173 72.035 1.225 68.903 100.885 66.439 168.46 52.682z" fill="#ff1dc0"/></g><g filter="url(#b)"><path d="m396.642 388.893c32.957-6.71 56.34-14.82 74.591-43.065 35.583-55.067-18.352-147.565-83.875-145.275-51.787 1.81-65.878 50.953-91.846 95.794-11.459 19.786-24.281 30.605-23.875 53.453.91 51.129 74.862 49.301 125.005 39.093z" fill="#f7e14c"/></g></svg>