<svg fill="none" height="4500" viewBox="0 0 1440 4500" width="1440" xmlns="http://www.w3.org/2000/svg" xmlns:xlink="http://www.w3.org/1999/xlink"><filter id="a" color-interpolation-filters="sRGB" filterUnits="userSpaceOnUse" height="105" width="171" x="-34" y="626"><feFlood flood-opacity="0" result="BackgroundImageFix"/><feColorMatrix in="SourceAlpha" result="hardAlpha" type="matrix" values="0 0 0 0 0 0 0 0 0 0 0 0 0 0 0 0 0 0 127 0"/><feOffset dx="10" dy="10"/><feGaussianBlur stdDeviation="5"/><feComposite in2="hardAlpha" operator="out"/><feColorMatrix type="matrix" values="0 0 0 0 0.972549 0 0 0 0 0.717647 0 0 0 0 0.596078 0 0 0 0.25 0"/><feBlend in2="BackgroundImageFix" mode="normal" result="effect1_dropShadow_61_574"/><feBlend in="SourceGraphic" in2="effect1_dropShadow_61_574" mode="normal" result="shape"/></filter><filter id="b" color-interpolation-filters="sRGB" filterUnits="userSpaceOnUse" height="144.216" width="160.355" x="643.187" y="2395.9"><feFlood flood-opacity="0" result="BackgroundImageFix"/><feColorMatrix in="SourceAlpha" result="hardAlpha" type="matrix" values="0 0 0 0 0 0 0 0 0 0 0 0 0 0 0 0 0 0 127 0"/><feOffset dx="10" dy="10"/><feGaussianBlur stdDeviation="5"/><feComposite in2="hardAlpha" operator="out"/><feColorMatrix type="matrix" values="0 0 0 0 0.972549 0 0 0 0 0.717647 0 0 0 0 0.596078 0 0 0 0.25 0"/><feBlend in2="BackgroundImageFix" mode="normal" result="effect1_dropShadow_61_574"/><feBlend in="SourceGraphic" in2="effect1_dropShadow_61_574" mode="normal" result="shape"/></filter><filter id="c" color-interpolation-filters="sRGB" filterUnits="userSpaceOnUse" height="191.202" width="197.735" x="678.077" y="1882.27"><feFlood flood-opacity="0" result="BackgroundImageFix"/><feColorMatrix in="SourceAlpha" result="hardAlpha" type="matrix" values="0 0 0 0 0 0 0 0 0 0 0 0 0 0 0 0 0 0 127 0"/><feOffset dx="15" dy="15"/><feGaussianBlur stdDeviation="15"/><feComposite in2="hardAlpha" operator="out"/><feColorMatrix type="matrix" values="0 0 0 0 0.972549 0 0 0 0 0.717647 0 0 0 0 0.596078 0 0 0 0.5 0"/><feBlend in2="BackgroundImageFix" mode="normal" result="effect1_dropShadow_61_574"/><feBlend in="SourceGraphic" in2="effect1_dropShadow_61_574" mode="normal" result="shape"/></filter><filter id="d" color-interpolation-filters="sRGB" filterUnits="userSpaceOnUse" height="165.851" width="202.224" x="-23.5933" y="1555.14"><feFlood flood-opacity="0" result="BackgroundImageFix"/><feColorMatrix in="SourceAlpha" result="hardAlpha" type="matrix" values="0 0 0 0 0 0 0 0 0 0 0 0 0 0 0 0 0 0 127 0"/><feOffset dx="15" dy="15"/><feGaussianBlur stdDeviation="15"/><feComposite in2="hardAlpha" operator="out"/><feColorMatrix type="matrix" values="0 0 0 0 0.972549 0 0 0 0 0.717647 0 0 0 0 0.596078 0 0 0 0.5 0"/><feBlend in2="BackgroundImageFix" mode="normal" result="effect1_dropShadow_61_574"/><feBlend in="SourceGraphic" in2="effect1_dropShadow_61_574" mode="normal" result="shape"/></filter><filter id="e" color-interpolation-filters="sRGB" filterUnits="userSpaceOnUse" height="191.202" width="197.736" x="-33.9229" y="3815.27"><feFlood flood-opacity="0" result="BackgroundImageFix"/><feColorMatrix in="SourceAlpha" result="hardAlpha" type="matrix" values="0 0 0 0 0 0 0 0 0 0 0 0 0 0 0 0 0 0 127 0"/><feOffset dx="15" dy="15"/><feGaussianBlur stdDeviation="15"/><feComposite in2="hardAlpha" operator="out"/><feColorMatrix type="matrix" values="0 0 0 0 0.972549 0 0 0 0 0.717647 0 0 0 0 0.596078 0 0 0 0.5 0"/><feBlend in2="BackgroundImageFix" mode="normal" result="effect1_dropShadow_61_574"/><feBlend in="SourceGraphic" in2="effect1_dropShadow_61_574" mode="normal" result="shape"/></filter><filter id="f" color-interpolation-filters="sRGB" filterUnits="userSpaceOnUse" height="211.558" width="171.753" x="1103.6" y="566.371"><feFlood flood-opacity="0" result="BackgroundImageFix"/><feColorMatrix in="SourceAlpha" result="hardAlpha" type="matrix" values="0 0 0 0 0 0 0 0 0 0 0 0 0 0 0 0 0 0 127 0"/><feOffset dx="10" dy="10"/><feGaussianBlur stdDeviation="5"/><feComposite in2="hardAlpha" operator="out"/><feColorMatrix type="matrix" values="0 0 0 0 0.972549 0 0 0 0 0.717647 0 0 0 0 0.596078 0 0 0 0.25 0"/><feBlend in2="BackgroundImageFix" mode="normal" result="effect1_dropShadow_61_574"/><feBlend in="SourceGraphic" in2="effect1_dropShadow_61_574" mode="normal" result="shape"/></filter><filter id="g" color-interpolation-filters="sRGB" filterUnits="userSpaceOnUse" height="337" width="226" x="1319" y="0"><feFlood flood-opacity="0" result="BackgroundImageFix"/><feColorMatrix in="SourceAlpha" result="hardAlpha" type="matrix" values="0 0 0 0 0 0 0 0 0 0 0 0 0 0 0 0 0 0 127 0"/><feOffset dx="10" dy="10"/><feGaussianBlur stdDeviation="5"/><feComposite in2="hardAlpha" operator="out"/><feColorMatrix type="matrix" values="0 0 0 0 0.972549 0 0 0 0 0.717647 0 0 0 0 0.596078 0 0 0 0.25 0"/><feBlend in2="BackgroundImageFix" mode="normal" result="effect1_dropShadow_61_574"/><feBlend in="SourceGraphic" in2="effect1_dropShadow_61_574" mode="normal" result="shape"/></filter><filter id="h" color-interpolation-filters="sRGB" filterUnits="userSpaceOnUse" height="318.775" width="254.363" x="-67" y="1924.22"><feFlood flood-opacity="0" result="BackgroundImageFix"/><feColorMatrix in="SourceAlpha" result="hardAlpha" type="matrix" values="0 0 0 0 0 0 0 0 0 0 0 0 0 0 0 0 0 0 127 0"/><feOffset dx="10" dy="10"/><feGaussianBlur stdDeviation="5"/><feComposite in2="hardAlpha" operator="out"/><feColorMatrix type="matrix" values="0 0 0 0 0.972549 0 0 0 0 0.717647 0 0 0 0 0.596078 0 0 0 0.25 0"/><feBlend in2="BackgroundImageFix" mode="normal" result="effect1_dropShadow_61_574"/><feBlend in="SourceGraphic" in2="effect1_dropShadow_61_574" mode="normal" result="shape"/></filter><filter id="i" color-interpolation-filters="sRGB" filterUnits="userSpaceOnUse" height="222.555" width="334.794" x="614.139" y="3583.22"><feFlood flood-opacity="0" result="BackgroundImageFix"/><feColorMatrix in="SourceAlpha" result="hardAlpha" type="matrix" values="0 0 0 0 0 0 0 0 0 0 0 0 0 0 0 0 0 0 127 0"/><feOffset dx="10" dy="10"/><feGaussianBlur stdDeviation="5"/><feComposite in2="hardAlpha" operator="out"/><feColorMatrix type="matrix" values="0 0 0 0 0.972549 0 0 0 0 0.717647 0 0 0 0 0.596078 0 0 0 0.25 0"/><feBlend in2="BackgroundImageFix" mode="normal" result="effect1_dropShadow_61_574"/><feBlend in="SourceGraphic" in2="effect1_dropShadow_61_574" mode="normal" result="shape"/></filter><filter id="j" color-interpolation-filters="sRGB" filterUnits="userSpaceOnUse" height="231.51" width="313.87" x="906.864" y="4248.36"><feFlood flood-opacity="0" result="BackgroundImageFix"/><feColorMatrix in="SourceAlpha" result="hardAlpha" type="matrix" values="0 0 0 0 0 0 0 0 0 0 0 0 0 0 0 0 0 0 127 0"/><feOffset dx="10" dy="10"/><feGaussianBlur stdDeviation="5"/><feComposite in2="hardAlpha" operator="out"/><feColorMatrix type="matrix" values="0 0 0 0 0.972549 0 0 0 0 0.717647 0 0 0 0 0.596078 0 0 0 0.25 0"/><feBlend in2="BackgroundImageFix" mode="normal" result="effect1_dropShadow_61_574"/><feBlend in="SourceGraphic" in2="effect1_dropShadow_61_574" mode="normal" result="shape"/></filter><filter id="k" color-interpolation-filters="sRGB" filterUnits="userSpaceOnUse" height="274" width="282" x="-47" y="881"><feFlood flood-opacity="0" result="BackgroundImageFix"/><feColorMatrix in="SourceAlpha" result="hardAlpha" type="matrix" values="0 0 0 0 0 0 0 0 0 0 0 0 0 0 0 0 0 0 127 0"/><feOffset dx="10" dy="10"/><feGaussianBlur stdDeviation="5"/><feComposite in2="hardAlpha" operator="out"/><feColorMatrix type="matrix" values="0 0 0 0 0.972549 0 0 0 0 0.717647 0 0 0 0 0.596078 0 0 0 0.25 0"/><feBlend in2="BackgroundImageFix" mode="normal" result="effect1_dropShadow_61_574"/><feBlend in="SourceGraphic" in2="effect1_dropShadow_61_574" mode="normal" result="shape"/></filter><linearGradient id="l"><stop offset="0" stop-color="#ff1bbf"/><stop offset=".917323" stop-color="#ffe294"/></linearGradient><linearGradient id="m" gradientUnits="userSpaceOnUse" x1="41.5" x2="41.5" xlink:href="#l" y1="626" y2="711"/><linearGradient id="n" gradientUnits="userSpaceOnUse" x1="683.739" x2="731.025" xlink:href="#l" y1="2423" y2="2493.63"/><linearGradient id="o" gradientUnits="userSpaceOnUse" x1="793.556" x2="738.589" xlink:href="#l" y1="1928.82" y2="1993.66"/><linearGradient id="p" gradientUnits="userSpaceOnUse" x1="40.0609" x2="68.7771" xlink:href="#l" y1="1586.51" y2="1666.51"/><linearGradient id="q" gradientUnits="userSpaceOnUse" x1="81.5561" x2="26.5887" xlink:href="#l" y1="3861.82" y2="3926.66"/><linearGradient id="r" gradientUnits="userSpaceOnUse" x1="1195.09" x2="1149.94" xlink:href="#l" y1="748.985" y2="584.286"/><linearGradient id="s" gradientUnits="userSpaceOnUse" x1="1422" x2="1422" xlink:href="#l" y1="0" y2="317"/><linearGradient id="t" gradientUnits="userSpaceOnUse" x1="74.3978" x2="31.5189" xlink:href="#l" y1="2233.34" y2="1919.26"/><linearGradient id="u" gradientUnits="userSpaceOnUse" x1="866.61" x2="682.952" xlink:href="#l" y1="3548.67" y2="3807.05"/><linearGradient id="v" gradientUnits="userSpaceOnUse" x1="1021.17" x2="1096.08" xlink:href="#l" y1="4461.34" y2="4218.64"/><linearGradient id="w" gradientUnits="userSpaceOnUse" x1="84" x2="84" xlink:href="#l" y1="881" y2="1135"/><g filter="url(#a)"><path d="m100.675 699.985c-45.6092 17.643-94.5104 13.369-134.675-7.661l26.70021-66.324c23.46089 15.086 53.73699 19.148 81.78329 8.299 5.7028-2.206 11.0665-4.936 16.0286-8.101l26.4879 66.429c-5.239 2.717-10.678 5.174-16.325 7.358z" fill="url(#m)"/></g><g filter="url(#b)"><path d="m774.07 2451.56c-28.085 40.04-71.098 63.69-116.173 68.56l-14.71-69.97c27.888-.52 55.306-13.98 72.577-38.6 3.511-5.01 6.45-10.26 8.813-15.65l58.966 40.47c-2.842 5.17-5.996 10.24-9.473 15.19z" fill="url(#n)"/></g><g filter="url(#c)"><path d="m790.849 2023.52c-46.199-16.03-80.735-50.92-97.772-92.93l63.256-33.32c8.14 26.67 28.607 49.35 57.015 59.21 5.777 2.01 11.633 3.4 17.465 4.19l-22.754 67.8c-5.753-1.32-11.491-2.96-17.21-4.95z" fill="url(#o)"/></g><g filter="url(#d)"><path d="m120.752 1636.15c-36.9675 32.01-84.4373 44.51-129.34529 38.29l2.72365-71.45c27.17794 6.28 57.04634-.13 79.77834-19.82 4.6223-4 8.7484-8.38 12.3496-13.03l47.3727 53.57c-4.013 4.33-8.303 8.48-12.879 12.44z" fill="url(#p)"/></g><g filter="url(#e)"><path d="m78.8486 3956.52c-46.1987-16.03-80.73501-50.92-97.7713-92.93l63.256-33.32c8.1396 26.67 28.6063 49.35 57.0147 59.21 5.777 2.01 11.633 3.4 17.465 4.19l-22.7542 67.8c-5.7526-1.32-11.4908-2.96-17.2102-4.95z" fill="url(#q)"/></g><g filter="url(#f)"><path d="m1189.9 607.758 25.39-41.387c6.86 5.538 13.14 12.013 18.65 19.398 35.56 47.639 25.83 115.2-21.7 150.765-32.43 24.265-74.12 27.417-108.64 11.853l25.4-41.382c17.92 5.944 38.35 3.325 54.6-8.833 26.42-19.765 31.82-57.295 12.06-83.761-1.78-2.39-3.71-4.609-5.76-6.653z" fill="url(#r)"/></g><g filter="url(#g)"><path d="m1444.95 81.259-9.98-17.9736c-21.78-31.4484-53.76-53.49547-89.43-63.2854l-26.54 67.1913c29.46 5.2788 55.58 25.3344 67.31 55.3197l48.69 124.467 23.73 70.022 66.27-26.13-50.45-138.253c-.21-.297-.38-.649-.52-1.054-5.59-16.857-17.5-46.584-29.08-70.304z" fill="url(#s)"/></g><g filter="url(#h)"><path d="m40.6713 2155.93 12.3165 16.46c25.8285 28.22 60.4982 45.74 97.1702 50.61l17.205-70.16c-29.899-1.25-58.497-17.59-74.1747-45.71l-65.0782-116.74-32.98542-66.17-62.12478 34.86 68.6828 130.16c.25146.26.47174.59.65964.97 7.82556 15.95 23.64426 43.79 38.32896 65.72z" fill="url(#t)"/></g><g filter="url(#i)"><path d="m800.829 3601.61 18.545-8.87c35.968-13.01 74.808-12.46 109.559.23l-17.299 70.14c-27.066-12.76-59.98-11.55-86.912 6.1l-111.798 73.24-59.911 43.32-38.874-59.69 121.215-83.46c.346-.12.692-.3 1.036-.56 14.328-10.49 41.256-27.83 64.439-40.45z" fill="url(#u)"/></g><g filter="url(#j)"><path d="m1127.46 4280 64.93-31.64c4.17 12.42 6.88 25.56 7.9 39.23 6.56 88.17-59.62 165.16-147.66 171.82-60.075 4.54-114.896-24.81-145.766-71.9l64.914-31.64c17.736 21.77 45.462 34.81 75.562 32.54 48.93-3.7 85.69-46.47 82.04-95.46-.33-4.42-.97-8.75-1.92-12.95z" fill="url(#v)"/></g><g filter="url(#k)"><path d="m35.9185 1085.62-52.7047 49.38c-7.6526-10.64-14.1136-22.4-19.1169-35.16-32.2741-82.31 8.2527-175.397 90.4183-207.721 56.0598-22.054 117.0968-10.182 160.4848 25.716l-52.697 49.373c-23.369-15.573-53.71-19.852-81.7982-8.802-45.6631 17.964-68.169 69.674-50.2386 115.404 1.6191 4.13 3.5129 8.07 5.6523 11.81z" fill="url(#w)"/></g></svg>