<svg fill="none" height="24" viewBox="0 0 24 24" width="24" xmlns="http://www.w3.org/2000/svg"><path d="m11.999 22c-4.94331-.0652-8.93483-4.0567-8.99998-9 .06515-4.94332 4.05667-8.93484 8.99998-9 4.9433.06516 8.9349 4.05668 9 9-.0651 4.9433-4.0567 8.9348-9 9zm0-16c-3.84482.05062-6.94937 3.15517-6.99998 7 .05061 3.8448 3.15516 6.9494 6.99998 7 3.8448-.0506 6.9494-3.1552 7-7-.0506-3.84483-3.1552-6.94938-7-7zm5 8h-6v-6h2v4h4zm3.292-7.292-3.009-3 1.409-1.417 3.01 3-1.41 1.416zm-16.58498 0-1.415-1.417 2.991-3 1.415 1.417-2.989 3z" fill="#000"/></svg>