<svg fill="none" height="24" viewBox="0 0 24 24" width="24" xmlns="http://www.w3.org/2000/svg"><path d="m12 22c-4.94333-.0652-8.93485-4.0567-9.00001-9 .06516-4.94332 4.05668-8.93484 9.00001-9 4.9433.06516 8.9348 4.05668 9 9-.0652 4.9433-4.0567 8.9348-9 9zm0-16c-3.84484.05062-6.94939 3.15517-7.00001 7 .05062 3.8448 3.15517 6.9494 7.00001 7 3.8448-.0506 6.9494-3.1552 7-7-.0506-3.84483-3.1552-6.94938-7-7zm1 12h-2v-4h-4.00001v-2h4.00001v-4h2v4h4v2h-4zm7.292-11.292-3.009-3 1.409-1.417 3.01 3-1.41 1.416zm-16.58301 0-1.417-1.417 2.991-3 1.415 1.416-2.989 3z" fill="#000"/></svg>