<svg fill="none" height="24" viewBox="0 0 24 24" width="24" xmlns="http://www.w3.org/2000/svg"><path d="m18 22c-2.1918-.0053-3.9733-1.7694-4-3.961v-2.039h-4.00004v2.02c-.01104 2.2065-1.80675 3.9873-4.01327 3.98-2.20652-.0074-3.99034-1.8001-3.98668-4.0066.00366-2.2066 1.79342-3.9934 3.99995-3.9934h2v-4.00001h-2c-2.20653-.00002-3.99629-1.78684-3.99995-3.99336-.00366-2.20653 1.78016-3.99927 3.98668-4.00664 2.20652-.00732 4.00223 1.7735 4.01327 3.98v2.02h4.00004v-2c0-2.20914 1.7908-4 4-4 2.2091 0 4 1.79086 4 4s-1.7909 4-4 4h-2v4.00001h2c2.2091 0 4 1.7909 4 4s-1.7909 4-4 4zm-2-6v2c0 1.1046.8954 2 2 2 1.1045 0 2-.8954 2-2s-.8955-2-2-2zm-10.00004 0c-1.10457 0-2 .8954-2 2s.89543 2 2 2c.53215.0057 1.04416-.2032 1.42047-.5795s.5852-.8884.57953-1.4205v-2zm4-6.00001v4.00001h4.00004v-4.00001zm8.00004-6c-.5322-.00568-1.0442.20321-1.4205.57953-.3763.37631-.5852.88832-.5795 1.42047v2h2c.5321.00568 1.0441-.20321 1.4204-.57952s.5852-.88832.5796-1.42048c.0056-.53215-.2033-1.04416-.5796-1.42047-.3763-.37632-.8883-.58521-1.4204-.57953zm-12.00004 0c-.53216-.00568-1.04417.20321-1.42048.57953-.37631.37631-.5852.88832-.57952 1.42047-.00568.53216.20321 1.04417.57952 1.42048s.88832.5852 1.42048.57952h2v-2c.00567-.53215-.20322-1.04416-.57953-1.42047-.37631-.37632-.88832-.58521-1.42047-.57953z" fill="#000"/></svg>