<svg fill="none" height="24" viewBox="0 0 24 24" width="24" xmlns="http://www.w3.org/2000/svg"><path d="m12 22c-5.52285 0-10-4.4772-10-10 0-5.52285 4.47715-10 10-10 5.5228 0 10 4.47715 10 10-.0061 5.5203-4.4797 9.9939-10 10zm0-18c-4.41828 0-8 3.58172-8 8 0 4.4183 3.58172 8 8 8 4.4183 0 8-3.5817 8-8-.005-4.41622-3.5838-7.99504-8-8zm4 13h-8v-2h8zm-7.5-5c-.82843 0-1.5-.6716-1.5-1.5 0-.82843.67157-1.5 1.5-1.5s1.5.67157 1.5 1.5c0 .8284-.67157 1.5-1.5 1.5zm6.993-.014c-.8246 0-1.493-.6684-1.493-1.493 0-.82456.6684-1.493 1.493-1.493s1.493.66844 1.493 1.493c-.0011.8241-.6689 1.4919-1.493 1.493z" fill="#000"/></svg>