<svg fill="none" height="24" viewBox="0 0 24 24" width="24" xmlns="http://www.w3.org/2000/svg"><path d="m20 20h-16c-1.10457 0-2-.8954-2-2v-12c0-1.10457.89543-2 2-2h16c1.1046 0 2 .89543 2 2v12c0 1.1046-.8954 2-2 2zm-16-14v12h16v-12zm11.5 10c-1.3807 0-2.5-1.1193-2.5-2.5s1.1193-2.5 2.5-2.5 2.5 1.1193 2.5 2.5c0 .663-.2634 1.2989-.7322 1.7678-.4689.4688-1.1048.7322-1.7678.7322zm-4 0c-1.3807 0-2.5-1.1193-2.5-2.5s1.1193-2.5 2.5-2.5c.5428.0004 1.0702.1805 1.5.512-.6287.4671-.9994 1.2042-.9994 1.9875s.3707 1.5204.9994 1.9875c-.4297.3319-.9571.5123-1.5.513z" fill="#000"/></svg>