<svg fill="none" height="24" viewBox="0 0 24 24" width="24" xmlns="http://www.w3.org/2000/svg"><path d="m12 22c-5.52285 0-10-4.4772-10-10 0-5.52285 4.47715-10 10-10 5.5228 0 10 4.47715 10 10-.0061 5.5203-4.4797 9.9939-10 10zm-1-5v2h2v-2zm1-10c1.1046 0 2 .89543 2 2 .0035.53073-.2096 1.0399-.59 1.41l-1.24 1.26c-.7486.7517-1.1692 1.7691-1.17 2.83v.5h2c-.0777-1.075.3559-2.1237 1.17-2.83l.9-.92c.5981-.5957.933-1.40589.93-2.25 0-2.20914-1.7909-4-4-4-2.20914 0-4 1.79086-4 4h2c0-1.10457.8954-2 2-2z" fill="#000"/></svg>