<svg fill="none" height="24" viewBox="0 0 24 24" width="24" xmlns="http://www.w3.org/2000/svg"><path d="m12 22c-5.52033-.0061-9.99394-4.4797-10-10v-.2c.10993-5.49548 4.63459-9.87206 10.1307-9.79913 5.4961.07292 9.903 4.568 9.8671 10.06443-.0359 5.4965-4.5012 9.9336-9.9978 9.9347zm-.016-2h.016c4.4167-.0044 7.9942-3.5873 7.992-8.004-.0022-4.41672-3.5833-7.99601-8-7.99601-4.41672 0-7.99779 3.57929-8 7.99601-.00221 4.4167 3.57529 7.9996 7.992 8.004zm1.016-2h-2v-2h2zm0-3h-2c-.0316-1.3023.6461-2.5192 1.77-3.178.66-.506 1.23-.942 1.23-1.82201 0-1.10457-.8954-2-2-2s-2 .89543-2 2h-2v-.09c.01608-1.42906.79333-2.741 2.039-3.4416 1.2456-.70061 2.7704-.68346 4 .045 1.2295.72845 1.9771 2.05754 1.961 3.4866-.0716 1.07901-.6503 2.06021-1.56 2.64501-.8223.5162-1.3553 1.3878-1.44 2.355z" fill="#000"/></svg>