<svg fill="none" height="24" viewBox="0 0 24 24" width="24" xmlns="http://www.w3.org/2000/svg"><g fill="#000"><path d="m8 18h12c1.1046 0 2-.8954 2-2v-12c0-1.10457-.8954-2-2-2h-12c-1.10457 0-2 .89543-2 2v12c0 1.1046.89543 2 2 2zm0-2v-12h12v12z"/><path d="m2 8h2v12h12v2h-12c-1.10457 0-2-.8954-2-2z"/><path d="m10 14h9l-3.75-5.44444-2.25 3.11114-.75-.7778z"/><path d="m10.75 8.16667c0 .64433.5037 1.16666 1.125 1.16666s1.125-.52233 1.125-1.16666c0-.64434-.5037-1.16667-1.125-1.16667s-1.125.52233-1.125 1.16667z"/></g></svg>