<svg fill="none" height="24" viewBox="0 0 24 24" width="24" xmlns="http://www.w3.org/2000/svg"><path d="m8.46492 20.535c-2.02216 0-3.84522-1.2181-4.6192-3.0863-.77397-1.8682-.34647-4.0186 1.0832-5.4487l2.122-2.12201 1.414 1.41401-2.121 2.121c-.75794.7579-1.05395 1.8626-.77652 2.898.27742 1.0354 1.08614 1.8441 2.1215 2.1215s2.14008-.0186 2.898-.7765l2.121-2.121 1.414 1.415-2.121 2.121c-.9359.9405-2.20912 1.4677-3.53598 1.464zm.707-4.293-1.414-1.414 7.07098-7.07101 1.414 1.414-7.06998 7.07001zm7.77898-2.121-1.415-1.414 2.121-2.121c.7683-.75568 1.0722-1.86535.7963-2.90703-.276-1.04168-1.0895-1.85533-2.1311-2.13154-1.0416-.2762-2.1513.02748-2.9072.79556l-2.122 2.121-1.41398-1.414 2.12198-2.122c1.9551-1.93803 5.109-1.93113 7.0556.01545s1.9535 5.10046.0154 7.05556l-2.121 2.121z" fill="#000"/></svg>