<svg fill="none" height="24" viewBox="0 0 24 24" width="24" xmlns="http://www.w3.org/2000/svg"><path d="m12 21c-1.2631-1.0774-2.43381-2.2585-3.5-3.531-1.6-1.911-3.5-4.757-3.5-7.46901-.00142-2.83245 1.70425-5.38661 4.32107-6.4706 2.61683-1.084 5.62903-.48416 7.63093 1.5196 1.3165 1.31061 2.0539 3.09339 2.048 4.951 0 2.71201-1.9 5.55801-3.5 7.46901-1.0662 1.2725-2.2369 2.4536-3.5 3.531zm0-16.00001c-2.76005.00331-4.99669 2.23995-5 5 0 1.16601.527 3.18501 3.035 6.18601.6181.738 1.274 1.4437 1.965 2.114.691-.6696 1.3472-1.3741 1.966-2.111 2.507-3.005 3.034-5.024 3.034-6.18901-.0033-2.76005-2.2399-4.99669-5-5zm0 8.00001c-1.6569 0-3-1.3432-3-3.00001 0-1.65686 1.3431-3 3-3s3 1.34314 3 3c0 .79561-.3161 1.55871-.8787 2.12131s-1.3256.8787-2.1213.8787z" fill="#000"/></svg>