<svg fill="none" height="24" viewBox="0 0 24 24" width="24" xmlns="http://www.w3.org/2000/svg"><path d="m12 21c-1.2631-1.0774-2.43381-2.2585-3.5-3.531-1.6-1.911-3.5-4.757-3.5-7.46901-.00142-2.83245 1.70425-5.38661 4.32107-6.4706 2.61683-1.084 5.62903-.48416 7.63093 1.5196 1.3165 1.31061 2.0539 3.09339 2.048 4.951 0 2.71201-1.9 5.55801-3.5 7.46901-1.0662 1.2725-2.2369 2.4536-3.5 3.531zm0-14.00001c-1.0718 0-2.06218.5718-2.59807 1.5-.5359.9282-.5359 2.07181 0 3.00001.53589.9282 1.52627 1.5 2.59807 1.5 1.6569 0 3-1.3432 3-3.00001 0-1.65686-1.3431-3-3-3z" fill="#000"/></svg>