<svg fill="none" height="24" viewBox="0 0 24 24" width="24" xmlns="http://www.w3.org/2000/svg"><path d="m5.99997 22c-1.68586-.0004-3.1905-1.0578-3.7621-2.6438s-.08744-3.3601 1.21056-4.4359 3.13117-1.2223 4.58354-.3663l6.52203-6.52201c-1.0203-1.73348-.5927-3.9552.9981-5.18611 1.5909-1.2309 3.8488-1.08706 5.2707.33576 1.4218 1.42282 1.564 3.68085.332 5.27084-1.232 1.59002-3.4541 2.01602-5.1868.99451l-6.52103 6.52101c.72943 1.2369.73993 2.7699.02751 4.0166-.71246 1.2468-2.03855 2.016-3.47451 2.0154zm0-6c-1.10457 0-2 .8954-2 2s.89543 2 2 2 2-.8954 2-2-.89543-2-2-2zm12.00003-12.00001c-1.0926.00111-1.9821.87885-1.9978 1.97134s.8483 1.99536 1.9405 2.02778c1.0921.03242 2.0081-.81762 2.0573-1.90912v.4-.49c0-1.10457-.8955-2-2-2z" fill="#000"/></svg>