<svg fill="none" height="24" viewBox="0 0 24 24" width="24" xmlns="http://www.w3.org/2000/svg"><path d="m18.9975 20c-8.5316.0121-15.00662-6.5405-14.99749-14.99749 0-.55228.44772-1.00251 1-1.00251h2.63936c.49557 0 .91656.36413.98933.85433.17441 1.17487.51647 2.31864 1.01578 3.39637l.10277.2218c.14288.30841.04603.67484-.23057.87237-.81738.58372-1.12976 1.75873-.49298 2.67553.79908 1.1504 1.8064 2.1575 2.9566 2.9562.9167.6366 2.0915.3243 2.6752-.493.1977-.2767.5643-.3736.8729-.2307l.2208.1023c1.0778.4993 2.2216.8414 3.3966 1.0158.4902.0727.8542.4937.8542.9893v2.6397c0 .5523-.4488 1-1.0011 1z" fill="#000"/></svg>