<svg fill="none" height="24" viewBox="0 0 24 24" width="24" xmlns="http://www.w3.org/2000/svg"><path d="m8.74214 8.68189c-1.07313.91184-1.46638 2.57481-.53977 3.90891.86711 1.2484 1.95943 2.3405 3.20753 3.2072 1.3342.9264 2.9971.5331 3.9088-.5401l.0102.0047c1.1645.5395 2.4015.9092 3.6711 1.0977v2.6397h-.0011-.0028c-7.9746.0113-14.00462-6.0889-13.99609-13.99641v-.00359h2.63936l.00017.00117c.18846 1.26948.55807 2.50537 1.0976 3.66991zm10.25676 12.31811h1.0011c.5523 0 1-.4477 1-1v-4.5023c0-.4956-.363-.9164-.8532-.9891l-.8542-.1268c-1.0803-.1603-2.1321-.4749-3.1231-.934l-.7529-.3487c-.4362-.2021-.9546-.0651-1.234.3262l-.3408.4771c-.2987.4182-.869.546-1.2912.2528-1.0522-.7307-1.9745-1.6528-2.70558-2.7053-.29321-.4222-.16547-.9925.25278-1.2912l.477-.34063c.3913-.27946.5283-.79786.3262-1.23417l-.3492-.75357c-.4591-.99093-.77357-2.04259-.93394-3.12284l-.12682-.85433c-.07277-.4902-.49359-.85316-.98916-.85316h-4.50187c-.55228 0-1 .44772-1 1v1.00143c-.00972 9.00647 6.91022 16.01147 15.99889 15.99857z" fill="#000"/></svg>