<svg fill="none" height="24" viewBox="0 0 24 24" width="24" xmlns="http://www.w3.org/2000/svg"><path d="m4 20v-7h7l-3.217 3.22c1.10996 1.135 2.6295 1.7764 4.217 1.78 2.5394-.0038 4.8015-1.6058 5.648-4h.018c.1145-.3254.2012-.6599.259-1h2.012c-.5039 3.9999-3.9055 6.9999-7.937 7h-.01c-2.12124.0063-4.15684-.8363-5.653-2.34zm2.074-9h-2.012c.50375-3.9984 3.903-6.99787 7.933-7.00005h.005c2.1216-.00679 4.1577.83588 5.654 2.34004l2.346-2.34004v7.00005h-7l3.222-3.22001c-1.1111-1.13635-2.6327-1.77786-4.222-1.78-2.53945.00375-4.80152 1.60578-5.648 4h-.018c-.11544.32511-.20211.65971-.259 1.00001z" fill="#000"/></svg>