<svg fill="none" height="24" viewBox="0 0 24 24" width="24" xmlns="http://www.w3.org/2000/svg"><path d="m12 23-9.5-5.5v-11l9.5-5.5 9.5 5.5v11zm0-19.688-7.5 4.341v8.694l7.5 4.342 7.5-4.342v-8.694l-7.5-4.342zm0 12.688c-1.0605-.003-2.07706-.4241-2.829-1.172-1.14376-1.1441-1.48575-2.8645-.86652-4.3591.61923-1.49454 2.07772-2.4689 3.69552-2.4689 1.0603.00284 2.0765.42402 2.828 1.172 1.5615 1.562 1.5615 4.094 0 5.656-.7516.7477-1.7678 1.1688-2.828 1.172zm0-6c-.9542-.0002-1.7756.6736-1.9619 1.6094-.18635.9358.3143 1.8729 1.1958 2.2382.8814.3653 1.8982.0571 2.4284-.7362.5303-.7932.4263-1.8506-.2483-2.5254-.3742-.3762-.8833-.58721-1.414-.586z" fill="#000"/></svg>