<svg fill="none" height="24" viewBox="0 0 24 24" width="24" xmlns="http://www.w3.org/2000/svg"><path d="m13.8199 22h-3.64c-.46987 0-.87643-.327-.97698-.786l-.407-1.884c-.54295-.2379-1.05778-.5354-1.535-.887l-1.837.585c-.448.1429-.93501-.0457-1.17-.453l-1.824-3.151c-.23241-.4075-.15234-.9215.193-1.239l1.425-1.3c-.0648-.5889-.0648-1.1831 0-1.772l-1.425-1.297c-.34585-.31763-.42595-.83228-.193-1.24l1.82-3.153c.23499-.4073.722-.59586 1.17-.453l1.837.585c.24406-.18084.49813-.34778.761-.5.25234-.14231.51203-.27115.778-.386l.408-1.882c.10007-.45903.50619-.78651.97598-.787h3.64c.4698.00049.8759.32797.976.787l.412 1.883c.2808.12352.5543.26308.819.418.2473.14278.4863.29936.716.469l1.838-.585c.4477-.14233.9341.04616 1.169.453l1.82 3.153c.2324.40748.1524.92151-.193 1.239l-1.425 1.3c.0648.5889.0648 1.1831 0 1.772l1.425 1.3c.3454.3175.4254.8315.193 1.239l-1.82 3.153c-.2349.4068-.7213.5953-1.169.453l-1.838-.585c-.2326.1713-.4742.3299-.724.475-.2622.1519-.5326.2891-.81.411l-.413 1.879c-.1005.4586-.5065.7856-.976.786zm-1.824-14c-2.20912 0-3.99998 1.79086-3.99998 4 0 2.2091 1.79086 4 3.99998 4 2.2092 0 4-1.7909 4-4 0-2.20914-1.7908-4-4-4z" fill="#000"/></svg>