<svg fill="none" height="24" viewBox="0 0 24 24" width="24" xmlns="http://www.w3.org/2000/svg"><path d="m5.4999 15c.87465-.0026 1.71622-.3347 2.35699-.93l6.26001 3.577c-.4336 1.6943.4425 3.4499 2.057 4.1222 1.6144.6723 3.4777.0573 4.3747-1.4439.8971-1.5013.556-3.4335-.801-4.5368-1.3569-1.1033-3.3181-1.043-4.6047.1415l-6.26001-3.577c.06563-.2509.10188-.5087.10801-.768l6.151-3.515c1.2209 1.10994 3.0524 1.21285 4.39.24668 1.3375-.96617 1.8154-2.73724 1.1454-4.24509-.6701-1.50785-2.3048-2.34018-3.9183-1.99502s-2.7646 1.77343-2.7591 3.42343c.0036.28808.0429.5746.117.853l-5.684 3.247c-.91051-1.40858-2.69228-1.97324-4.2479-1.34619-1.55561.62705-2.44771 2.26949-2.12684 3.91579.32087 1.6462 1.7645 2.8335 3.44174 2.8304z" fill="#000"/></svg>