<svg fill="none" height="24" viewBox="0 0 24 24" width="24" xmlns="http://www.w3.org/2000/svg"><path d="m17.5001 22c-1.0821.0125-2.1076-.4819-2.7718-1.3363-.6641-.8543-.8903-1.9702-.6112-3.0157l-6.26001-3.578c-1.08171.991-2.66732 1.2008-3.96951.5251-1.3022-.6757-2.04361-2.0929-1.85612-3.5479.18749-1.45503 1.26396-2.63797 2.69491-2.96146 1.43095-.3235 2.91158.28137 3.70672 1.51425l5.68301-3.249c-.0735-.27781-.1125-.56364-.116-.851-.0143-1.67329 1.1478-3.12686 2.7832-3.48118s3.2949.48792 3.9744 2.0171c.6795 1.52917.1924 3.32531-1.1666 4.30159-1.3591.97628-3.2167.86458-4.449-.26751l-6.15101 3.51501c-.00609.2593-.04233.517-.108.768l6.25901 3.577c1.1523-1.0575 2.8668-1.2207 4.1979-.3997s1.9547 2.4264 1.5269 3.9307-1.8029 2.5413-3.3668 2.539zm0-5c-.8284 0-1.5.6716-1.5 1.5s.6716 1.5 1.5 1.5 1.5-.6716 1.5-1.5-.6716-1.5-1.5-1.5zm-12.00001-7.00001c-.82843 0-1.5.67161-1.5 1.50001s.67157 1.5 1.5 1.5 1.5-.6716 1.5-1.5-.67157-1.50001-1.5-1.50001zm12.00001-6c-.8284 0-1.5.67157-1.5 1.5s.6716 1.5 1.5 1.5 1.5-.67157 1.5-1.5-.6716-1.5-1.5-1.5z" fill="#000"/></svg>