<svg fill="none" height="24" viewBox="0 0 24 24" width="24" xmlns="http://www.w3.org/2000/svg"><path d="m7.5 21.5c-1.54589-.0065-2.90674-1.0205-3.355-2.5h-2.145v-2h2.145c.5149-1.727 2.25704-2.7808 4.0257-2.435s2.9856 1.9781 2.8121 3.7719c-.1734 1.7938-1.68065 3.1626-3.4828 3.1631zm0-5c-.82843 0-1.5.6716-1.5 1.5s.67157 1.5 1.5 1.5 1.5-.6716 1.5-1.5-.67157-1.5-1.5-1.5zm14.5 2.5h-10v-2h10zm-5.5-3.5c-1.8021-.0005-3.3094-1.3693-3.4828-3.1631-.1735-1.7938 1.0434-3.42606 2.8121-3.77187 1.7687-.3458 3.5108.70794 4.0257 2.43497h2.145v2h-2.145c-.4483 1.4795-1.8091 2.4935-3.355 2.5zm0-5c-.8284 0-1.5.6716-1.5 1.5s.6716 1.5 1.5 1.5 1.5-.6716 1.5-1.5-.6716-1.5-1.5-1.5zm-4.5 2.5h-10v-2h10zm-2.5-3.50001c-1.80215-.00046-3.30937-1.36929-3.48285-3.16307s1.04349-3.42608 2.81215-3.77189c1.7687-.3458 3.5108.70794 4.0257 2.43496h9.145v2h-9.145c-.4485 1.47929-1.8092 2.49321-3.355 2.5zm0-5c-.81802.00111-1.48432.65743-1.49777 1.47535-.01345.81791.63092 1.49578 1.44846 1.52377.81751.028 1.50681-.6042 1.54931-1.42112v.29-.368c0-.82842-.6716-1.5-1.5-1.5zm-4.5 2.5h-3v-2h3z" fill="#000"/></svg>