<svg fill="none" height="24" viewBox="0 0 24 24" width="24" xmlns="http://www.w3.org/2000/svg"><path d="m8 20c-1.82474.0009-3.41881-1.2332-3.875-3h-2.125v-2h2.126c.51964-2.0125 2.49412-3.2917 4.54328-2.9434 2.04912.3483 3.49012 2.208 3.31562 4.2792-.1746 2.0713-1.9063 3.6637-3.9849 3.6642zm0-6c-1.0926.0011-1.98211.8789-1.99777 1.9713-.01565 1.0925.84834 1.9954 1.94046 2.0278s2.00814-.8176 2.05731-1.9091v.4-.49c0-1.1046-.89543-2-2-2zm14 3h-9v-2h9zm-9-5c-1.8244.0005-3.41791-1.2336-3.874-3h-7.126v-2h7.126c.51964-2.01255 2.4941-3.29175 4.5433-2.94343 2.0491.34831 3.4901 2.20805 3.3156 4.27927-.1746 2.07126-1.9063 3.66366-3.9849 3.66416zm0-6c-1.0926.00111-1.9821.87885-1.9978 1.97134-.0156 1.0925.8484 1.99537 1.9405 2.02778 1.0921.03238 2.0081-.81762 2.0573-1.90912v.40001-.49001c0-1.10456-.8954-2-2-2zm9 3h-4v-2h4z" fill="#000"/></svg>