<svg fill="none" height="24" viewBox="0 0 24 24" width="24" xmlns="http://www.w3.org/2000/svg"><path d="m12.8971 21.968c-.5311.0016-1.0406-.2094-1.415-.586l-7.83405-7.835c-.41341-.4122-.62539-.9849-.58-1.567l.5-6.56599c.0713-.98761.8582-1.77238 1.846-1.841l6.56605-.5c.051-.011.103-.011.154-.011.5298.00136 1.0377.21198 1.413.586l7.835 7.83399c.3752.3751.586.8839.586 1.4145s-.2108 1.0394-.586 1.4145l-7.071 7.071c-.3742.3763-.8834.5873-1.414.586zm-.764-16.90599-6.57105.5-.5 6.57099 7.83505 7.835 7.07-7.07zm-3.47905 5.59199c-.95416.0002-1.77558-.67363-1.96192-1.60942-.18633-.93579.31433-1.87289 1.19579-2.23819.88147-.3653 1.89823-.05706 2.42848.7362.5302.79327.4262 1.85063-.2483 2.52541-.37422.3763-.88337.5873-1.41405.586z" fill="#000"/></svg>