<svg fill="none" height="24" viewBox="0 0 24 24" width="24" xmlns="http://www.w3.org/2000/svg"><path d="m12.8969 21.968c-.5307.0016-1.04-.2095-1.414-.586l-7.83701-7.835c-.41353-.4121-.62553-.9849-.58-1.567l.5-6.56599c.07142-.98832.85942-1.77333 1.848-1.841l6.56601-.5c.052-.011.103-.011.155-.011.5296-.00063 1.0376.21033 1.411.586l7.837 7.83399c.3752.3751.5861.8839.5861 1.4145s-.2109 1.0394-.5861 1.4145l-7.072 7.071c-.3742.3763-.8833.5873-1.414.586zm-4.24301-15.31399c-.90518.00026-1.69734.60844-1.9314 1.48283-.23407.87439.14832 1.79699.93231 2.24946.784.4524 1.77413.3219 2.4141-.3183l.007-.006.007-.007-.008.007c.5684-.57343.7363-1.43243.4256-2.17768-.3108-.74525-1.03917-1.23055-1.84661-1.23031z" fill="#000"/></svg>