<svg fill="none" height="24" viewBox="0 0 24 24" width="24" xmlns="http://www.w3.org/2000/svg"><path d="m20.2921 21.707-8.706-8.707h-4.586v-2h2.586l-2-2h-.586c-1.65686 0-3 1.3431-3 3s1.34314 3 3 3h3v2h-3c-2.51845.0021-4.64536-1.8693-4.96395-4.3675s1.27059-4.84345 3.70895-5.4735l-3.453-3.452 1.415-1.414 18 18-1.414 1.413zm-.156-5.814-1.428-1.427c1.0785-.7472 1.5463-2.1085 1.155-3.3608-.3913-1.25226-1.551-2.105-2.863-2.1052h-3v-2h3c2.12.00025 4.0094 1.33744 4.7146 3.3367.7053 1.9993.073 4.226-1.5776 5.5563z" fill="#000"/></svg>