<svg fill="none" height="24" viewBox="0 0 24 24" width="24" xmlns="http://www.w3.org/2000/svg"><path d="m12 22c-5.52285 0-10-4.4772-10-10 0-5.52285 4.47715-10 10-10 5.5228 0 10 4.47715 10 10-.0061 5.5203-4.4797 9.9939-10 10zm-4.273-7.213c-.129.0008-.25749.0162-.383.046l-.15.041-.594 1.017c-.22533.3759-.11662.8624.24727 1.1066s.85531.1604 1.11773-.1906l.062-.093.79-1.371c-.25956-.3471-.66657-.5529-1.1-.556zm5.484-6.127c-.3111.29227-.5174.67883-.587 1.1-.1115.5807-.0047 1.1822.3 1.689l3.04 5.266c.1485.2511.4183.4054.71.406.1251-.0004.2485-.0291.361-.084.3855-.1901.5598-.6449.4-1.044l-.049-.1-.8-1.391h1.19c.4324-.0036.7882-.3412.8146-.7729.0263-.4316-.2859-.8099-.7146-.8661l-.1-.006h-2.14l-2.194-3.8-.229-.4zm-6.951 4.19c-.10598.0001-.21092.0208-.309.061-.09939.0415-.18974.102-.266.178-.15406.1545-.2404.3638-.24.582.00014.4144.308.7642.719.817l.1.005h7.48c.1678-.3374.1615-.7352-.017-1.067-.152-.3111-.4497-.5255-.793-.571l-.121-.006h-2.551l3.528-6.109c.1087-.18937.1381-.414.082-.625-.0558-.21138-.1942-.39151-.384-.5-.357-.20557-.811-.11588-1.063.21l-.062.092-.363.634-.359-.634c-.1485-.25108-.4183-.40536-.71-.406-.1254.00045-.2492.02916-.362.084-.3853.19088-.5593.64565-.4 1.045l.049.1.83 1.46-2.685 4.65z" fill="#000"/></svg>