<svg fill="none" height="24" viewBox="0 0 24 24" width="24" xmlns="http://www.w3.org/2000/svg"><path d="m9.0941 21.006c-.62877-.0341-1.22046-.3083-1.653-.766-.5174-.4978-.97911-1.0503-1.377-1.648-.62151-.89-1.11279-1.8641-1.459-2.893-.39213-1.1068-.59858-2.2708-.611-3.445-.03013-1.1521.25551-2.29054.826-3.29198.41758-.7219 1.01319-1.32474 1.73-1.751.70889-.42443 1.51782-.65289 2.344-.662.62282.03685 1.2349.17921 1.81.421.4586.20176.9412.3436 1.436.422.546-.11439 1.0796-.28185 1.593-.5.6077-.23728 1.2511-.37015 1.903-.393.087 0 .173 0 .256.01 1.4295.04146 2.7591.74319 3.6 1.9-1.337.71485-2.158 2.12128-2.123 3.63698-.0132 1.1496.4661 2.2499 1.317 3.023.3829.3649.8288.6572 1.316.863-.1.3-.215.59-.337.882-.2773.6453-.6194 1.2608-1.021 1.837-.3791.5772-.8204 1.1111-1.316 1.592-.4524.4489-1.0554.7137-1.692.743-.5396-.0239-1.0698-.1505-1.562-.373-.5308-.2312-1.1012-.3579-1.68-.373-.5951.0117-1.1824.1377-1.73.371-.473.2134-.97825.3462-1.495.393zm3.15-14.50698c-.075 0-.15 0-.225-.009-.0158-.11903-.0241-.23893-.025-.359.0327-.99886.4231-1.95276 1.1-2.688.3783-.42242.8369-.7654 1.349-1.009.4779-.246 1.0001-.3939 1.536-.435.015.131.015.259.015.381-.0141.98315-.3835 1.92798-1.04 2.66-.6435.86278-1.6355 1.39687-2.71 1.459z" fill="#000"/></svg>