<svg fill="none" height="24" viewBox="0 0 24 24" width="24" xmlns="http://www.w3.org/2000/svg"><path d="m17.669 18.268c-.6489.0081-1.2935-.1063-1.9-.337-.5434-.2113-1.0344-.5382-1.439-.958-.3986-.429-.7064-.9341-.905-1.485-.2181-.6094-.3261-1.2528-.319-1.9-.0046-.6361.1065-1.2677.328-1.864.2065-.556.5243-1.0641.934-1.493.4108-.42359.9016-.76145 1.444-.99399.5875-.24852 1.2202-.37213 1.858-.363.6855-.01465 1.3643.13629 1.979.44.5487.28142 1.0245.68639 1.39 1.18299.3687.5073.6347 1.0817.783 1.691.1618.6477.2196 1.3171.171 1.983h-6.431c-.0256.6325.1912 1.2509.606 1.729.4358.3823 1.0056.5758 1.584.538.4543.0106.9007-.1197 1.278-.373.2995-.1828.5294-.4606.653-.789h2.155c-.2442.9287-.8061 1.7425-1.588 2.3-.7739.4787-1.6714.7193-2.581.692zm-.069-7.544c-.336-.0126-.6701.056-.974.2-.2376.1198-.4485.2865-.62.49-.1509.1849-.2625.3986-.328.628-.0577.1912-.095.388-.111.587h3.982c-.0287-.5186-.2264-1.0134-.563-1.409-.3725-.3516-.875-.5315-1.386-.496zm-9.63 7.312h-5.97v-12.30499h5.8c.5373-.00471 1.0736.04725 1.6.155.44587.08704.8707.25955 1.251.508.3435.23843.6192.56199.8.939.1997.45413.2953.94714.28 1.443.0217.5486-.1237 1.09085-.417 1.55499-.3209.4431-.7546.7922-1.256 1.011.6813.1703 1.2802.5767 1.69 1.147.3807.5868.5733 1.2758.552 1.975.0145.5592-.1084 1.1134-.358 1.614-.2303.444-.5644.8258-.974 1.113-.4246.2954-.8988.5122-1.4.64-.52323.1374-1.06202.2067-1.603.206zm-3.26-5.483v3.39h2.89c.25541.0028.51033-.0231.76-.077.22857-.0441.44611-.1332.64-.262.18672-.1228.33834-.292.44-.491.1179-.2496.17349-.5242.162-.8.04847-.5119-.14985-1.0162-.534-1.358-.41447-.2853-.91149-.4259-1.414-.4zm0-4.72499v2.87499h2.742c.42416.0167.84233-.1043 1.192-.345.32962-.2737.50319-.69232.464-1.11899.00845-.24492-.04377-.48813-.152-.708-.09776-.17774-.24187-.32566-.417-.428-.18442-.10937-.38809-.18235-.6-.215-.23076-.04327-.46523-.0637-.7-.061zm15.341-.056h-4.99v-1.215h4.99v1.214z" fill="#000"/></svg>