<svg fill="none" height="24" viewBox="0 0 24 24" width="24" xmlns="http://www.w3.org/2000/svg"><path d="m16.2861 17.7141c-1.6399-.0007-3.2006-.7049-4.286-1.934-1.7402 1.9726-4.60212 2.5023-6.93304 1.2834-2.33092-1.219-3.52851-3.8718-2.90111-6.4263.62741-2.55454 2.91768-4.35069 5.54811-4.35114.89894-.00214 1.78545.21005 2.58604.619-.62442.73207-1.1082 1.57318-1.42704 2.481-1.1565-.51223-2.51216-.20305-3.33221.75994-.82005.963-.90927 2.3506-.2193 3.4107.68996 1.0602 1.99486 1.5404 3.20744 1.1805 1.21257-.3599 2.04421-1.4743 2.04411-2.7391 0-3.1558 2.5582-5.71404 5.714-5.71404 3.1557 0 5.714 2.55824 5.714 5.71404 0 3.1557-2.5583 5.714-5.714 5.714zm-2.856-5.614c.0274 1.5678 1.3135 2.8206 2.8815 2.8068 1.5681-.0137 2.832-1.2887 2.832-2.8568 0-1.5682-1.2639-2.84321-2.832-2.85693-1.568-.01373-2.8541 1.23903-2.8815 2.80693z" fill="#000"/></svg>