<svg fill="none" height="24" viewBox="0 0 24 24" width="24" xmlns="http://www.w3.org/2000/svg"><path d="m12 22c-5.52285 0-10-4.4772-10-10 0-5.52285 4.47715-10 10-10 5.5228 0 10 4.47715 10 10-.0061 5.5203-4.4797 9.9939-10 10zm-4.88-3.455-.005.01c2.28305 1.7103 5.2943 2.1021 7.939 1.033-.3791-2.0387-.941-4.0391-1.679-5.977-1.6951.591-3.2448 1.5363-4.546 2.773-.64127.6072-1.19643 1.2993-1.65 2.057l-.007.011v-.01l-.018.035-.012.02-.007.013-.017.036zm9.659-5.5c-.4923.0007-.9841.0341-1.472.1.6372 1.7805 1.1386 3.6067 1.5 5.463 1.6994-1.225 2.8545-3.0642 3.22-5.127-1.058-.2919-2.1505-.4396-3.248-.439zm-12.962-1.09v.056c.00182 1.9266.68352 3.7907 1.925 5.264 1.60828-2.4845 3.98727-4.3727 6.772-5.375l.119-.034c-.177-.391-.343-.74-.509-1.066-2.66807.7481-5.4241 1.1365-8.195 1.155zm12.649-.606c1.2408.0046 2.4789.1177 3.7.338-.0636-1.69159-.6553-3.3208-1.692-4.659-1.2098 1.35293-2.7155 2.40834-4.4 3.084l.029-.012-.031.013c.179.373.336.722.467 1.033.031.074.057.138.081.2l.041.1c.5993-.0665 1.202-.0989 1.805-.097zm-8.089-6.672c-2.17469 1.07337-3.76082 3.05658-4.33 5.414 2.33038-.036 4.64957-.33047 6.915-.878h.013.015l.01-.013.054-.013h.006l.04-.008h.009.007l.021-.006.04-.01.023-.01.022-.006h.01.01c-1.333-2.347-2.713-4.26-2.866-4.47zm3.623-.83803c-.5474-.00135-1.0937.05056-1.631.15503 1.0476 1.45158 2.0089 2.96353 2.879 4.528 1.5581-.55495 2.9478-1.50043 4.036-2.746-1.4773-1.2494-3.3492-1.93559-5.284-1.93703z" fill="#000"/></svg>