<svg fill="none" height="24" viewBox="0 0 24 24" width="24" xmlns="http://www.w3.org/2000/svg"><path d="m8.94504 22.0001c-1.66491.0129-3.1563-1.0275-3.719-2.5945-.56269-1.567-.07385-3.3185 1.219-4.3676-.917-.7422-1.44977-1.8588-1.44977-3.0385s.53277-2.2963 1.44977-3.03848c-1.29327-1.04876-1.7824-2.80037-1.2196-4.36744.56281-1.56707 2.05459-2.60724 3.7196-2.59369h6.10996c1.665-.01355 3.1568 1.02662 3.7196 2.59369s.0737 3.31868-1.2196 4.36744c1.2929 1.04908 1.7817 2.80058 1.219 4.36758s-2.054 2.6074-3.719 2.5944c-.769.001-1.5215-.2229-2.165-.644v2.8c-.0093 2.171-1.774 3.9249-3.94496 3.9211zm-.022-6.0761c-1.18446.0187-2.13131.9908-2.11888 2.1753.01242 1.1846.97944 2.1366 2.16403 2.1305 1.18461-.0062 2.14171-.9682 2.14181-2.1528v-2.153h-2.18796zm6.13296-6.07698c-1.1876.00607-2.146.97268-2.142 2.16028.0041 1.1876.9691 2.1477 2.1567 2.1457s2.1493-.9653 2.1493-2.153c-.0044-1.1919-.973-2.15519-2.165-2.15298zm-6.10996-.00003c-.76919-.00408-1.48215.40251-1.8703 1.06661-.38816.664-.39254 1.4848-.0115 2.153.38103.6682 1.08961 1.0823 1.8588 1.0864h2.18696v-4.30601zm3.94396-6.07697v4.30702h2.164c1.1575.00538 2.1126-.9046 2.163-2.06102v.435-.528c-.0049-1.19052-.9714-2.153-2.162-2.153zm-3.94596 0c-.76919 0-1.47996.41036-1.86455 1.0765-.3846.66614-.3846 1.48686 0 2.153.38459.66614 1.09536 1.0765 1.86455 1.0765h2.16596v-4.306z" fill="#000"/></svg>