<svg fill="none" height="24" viewBox="0 0 24 24" width="24" xmlns="http://www.w3.org/2000/svg"><path d="m12.026 2c-4.89305-.00063-9.06417 3.54799-9.84758 8.3779-.78342 4.83 2.05219 9.5151 6.6946 11.0611.5.09.679-.217.679-.481 0-.237-.008-.865-.011-1.7-2.775.6-3.361-1.338-3.361-1.338-.18269-.603-.57543-1.1207-1.107-1.459-.9-.619.069-.605.069-.605.64067.0878 1.20455.4675 1.527 1.028.27293.4963.73275.863 1.2773 1.0186.54455.1557 1.12871.0874 1.6227-.1896.04642-.506.27153-.9789.63498-1.334-2.21398-.251-4.54198-1.107-4.54198-4.93-.01229-.9888.35489-1.9447 1.026-2.671-.30365-.86069-.26789-1.80475.1-2.64 0 0 .837-.269 2.742 1.021 1.63388-.44799 3.35818-.44799 4.99198 0 1.906-1.291 2.742-1.021 2.742-1.021.3696.83486.4054 1.77957.1 2.64.6736.72623 1.0405 1.6846 1.024 2.675 0 3.833-2.33 4.675-4.552 4.922.4793.4901.7252 1.1623.675 1.846 0 1.334-.012 2.41-.012 2.737 0 .267.178.577.687.479 4.6405-1.5486 7.4731-6.234 6.688-11.0627-.785-4.82865-4.9559-8.37542-9.848-8.3743z" fill="#000"/></svg>