<svg fill="none" height="24" viewBox="0 0 24 24" width="24" xmlns="http://www.w3.org/2000/svg"><path d="m11.956 10.356v3.451h4.792c-.446 2.193-2.313 3.453-4.792 3.453-2.88749-.0398-5.20738-2.3918-5.20738-5.2795 0-2.88775 2.31989-5.23978 5.20738-5.27952 1.2002-.00144 2.3634.41507 3.29 1.178l2.6-2.6c-2.9824-2.62193-7.338-2.95917-10.68848-.82756-3.35045 2.13161-4.89054 6.21978-3.77931 10.03218 1.11122 3.8124 4.6067 6.4328 8.57779 6.4304 4.467 0 8.529-3.249 8.529-8.934-.0069-.5474-.074-1.0923-.2-1.625z" fill="#000"/></svg>