<svg fill="none" height="24" viewBox="0 0 24 24" width="24" xmlns="http://www.w3.org/2000/svg"><path d="m19.3621 20.9931h-14.72404c-.90016-.0011-1.62945-.7309-1.63-1.631v-14.72404c.0011-.89977.73023-1.6289 1.63-1.63h14.72304c.9001.0011 1.6298.72991 1.632 1.63v14.72404c-.0011.9003-.7307 1.6299-1.631 1.631zm-12.68904-11.32304-.388 1.43004h1.278l-.826 3.366c-.0607.2662-.09421.5379-.1.811-.04648.4393.11076.8758.42678 1.1846.31601.3088.75602.456 1.19422.3994.92976-.0404 1.76494-.5806 2.18304-1.412l-.327 1.3h1.811l1.033-4.141c.26-1.06.772-1.6 1.519-1.6.2654-.0198.5261.0779.713.2674.187.1894.2813.4514.258.7166.0026.1969-.0261.393-.085.581l-.528 1.906c-.0762.2639-.1146.5373-.114.812-.0286.4387.1393.8675.4583 1.17.319.3026.756.4477 1.1927.396 1.03 0 1.748-.7 2.137-2.081l-.707-.273c-.276.789-.57 1.173-.9 1.173-.241 0-.368-.167-.368-.484.0067-.1663.0319-.3313.075-.492l.52-1.858c.1179-.3823.1785-.78.18-1.18.0594-.5316-.1079-1.0637-.461-1.4655-.3531-.40183-.8592-.63619-1.394-.64554-1.0482.14315-1.9532.80594-2.406 1.76204l.36-1.61704h-2.788l-.391 1.40004h1.294l-.8 3.188c-.2794.7832-.99645 1.3262-1.82604 1.383-.03082.0004-.06161-.0019-.092-.007-.243-.057-.384-.15-.384-.452.00566-.2497.04262-.4976.11-.738l1.216-4.80004zm2.345-3.162c-.38942 0-.74926.20775-.94397.545-.19471.33724-.19471.75275 0 1.09.19471.33724.55455.545.94397.545v-.025c.29154.00236.57223-.11049.781-.314.20464-.20211.31904-.47836.31704-.766-.0077-.59949-.49853-1.08001-1.09804-1.075z" fill="#000"/></svg>