<svg fill="none" height="24" viewBox="0 0 24 24" width="24" xmlns="http://www.w3.org/2000/svg"><path d="m5.39997 21c-.17057.0028-.34015-.0264-.5-.086l8.05403-8.057 2.666 2.669-9.25503 5.2c-.29317.1719-.62528.2662-.965.274zm-1.164-.665c-.16372-.2965-.2452-.6314-.236-.97v-14.70496c-.00135-.22322.03239-.44526.1-.658l8.23303 8.23496-8.10003 8.1zm12.17903-5.258-2.841-2.839 3.133-3.13196 2.783 1.56296c.5342.2391.8916.7549.928 1.339-.0362.5848-.3941 1.1011-.929 1.34zm-3.461-3.463-8.34003-8.33896c.22898-.16932.50621-.2608.791-.261.33634.01194.66447.10712.955.277l9.55103 5.368-2.956 2.95496z" fill="#000"/></svg>