<svg fill="none" height="24" viewBox="0 0 24 24" width="24" xmlns="http://www.w3.org/2000/svg"><path d="m12 21h-.051c-.149-.0112-.2907-.0689-.405-.165-.0314-.0266-.0601-.0561-.086-.088l-9.29003-11.074c-.07244-.08278-.12359-.18198-.149-.289 0-.013-.006-.026-.009-.039-.02833-.16752.00736-.33957.1-.482l.019-.028 3.63-5.135c.013-.02.026-.038.041-.054.10618-.12618.25351-.21082.416-.239.02781-.00424.05587-.00658.084-.007l5.65003-.4h.05.049l5.651.4c.0312.00177.0623.00578.093.012.1783.03319.3367.13429.442.282l3.637 5.144c.0075.00997.0145.02031.021.031.0832.12749.1209.27938.107.431-.0043.03886-.0116.07732-.022.115-.0274.09587-.0759.18438-.142.259l-9.293 11.072c-.0155.0194-.0322.0378-.05.055-.0584.0567-.1261.1031-.2.137-.0607.0274-.1251.0459-.191.055-.0338.0047-.0679.007-.102.007zm-4.05403-11.089 4.05403 8.752 4.054-8.752zm9.64003 0-2.762 5.963 5-5.963zm-13.41303 0 5 5.963-2.759-5.963zm13.99503-3.917-.26 2.551h2.062zm-6.168-1.125-3.12803 3.676h6.25603zm-6.16803 1.125-1.802 2.551h2.062zm7.64503-1.523 3.074 3.613.349-3.373zm-2.956 0-3.42103.24.345 3.373z" fill="#000"/></svg>