<svg fill="none" height="24" viewBox="0 0 24 24" width="24" xmlns="http://www.w3.org/2000/svg"><path d="m14.6411 22.024c-1.1605-.0039-2.0995-.9455-2.1-2.106v-2.107h2.1c1.1637 0 2.107.9433 2.107 2.107 0 1.1636-.9433 2.107-2.107 2.107zm-5.282 0c-1.16054-.0039-2.09946-.9455-2.1-2.106v-5.274c0-.7515.40092-1.4459 1.05175-1.8217.65082-.3758 1.45267-.3758 2.10345 0 .6509.3758 1.0518 1.0702 1.0518 1.8217v5.274c-.0006 1.1633-.9437 2.106-2.107 2.106zm10.55-5.273h-5.268c-1.1634 0-2.1065-.9431-2.1065-2.1065s.9431-2.1065 2.1065-2.1065h5.268c1.1634 0 2.1065.9431 2.1065 2.1065s-.9431 2.1065-2.1065 2.1065zm-15.817 0c-1.16339 0-2.1065-.9431-2.1065-2.1065s.94311-2.1065 2.1065-2.1065h2.1v2.106c0 1.1629-.94212 2.1059-2.105 2.107zm15.817-5.289h-2.1v-2.10602c.0033-1.15901.945-2.0962 2.104-2.094 1.159.00221 2.0971.94298 2.096 2.102s-.941 2.09802-2.1 2.09802zm-5.268 0c-1.1605-.0039-2.0995-.9455-2.1-2.10602v-5.274c0-.75151.4009-1.44593 1.0517-1.82168.6509-.37576 1.4527-.37576 2.1035 0 .6509.37575 1.0518 1.07017 1.0518 1.82168v5.274c-.0006 1.16332-.9437 2.10602-2.107 2.10602zm-5.282 0h-5.267c-1.16339 0-2.1065-.9431-2.1065-2.10652 0-1.16339.94311-2.1065 2.1065-2.1065h5.267c1.1634 0 2.1065.94311 2.1065 2.1065 0 1.16342-.9431 2.10652-2.1065 2.10652zm2.1-5.27301h-2.1c-.85225.00242-1.62195-.50904-1.94987-1.29568s-.14941-1.69337.45222-2.29701c.60163-.60363 1.50777-.78516 2.29545-.45986.7878.3253 1.3018 1.09329 1.3022 1.94554v2.106z" fill="#000"/></svg>