<svg fill="none" height="24" viewBox="0 0 24 24" width="24" xmlns="http://www.w3.org/2000/svg"><path d="m12 22.001-1.2-.006c-3.725-.04-5.982-.3-7.238-1.556s-1.515-3.515-1.556-7.238l-.006-1.51.006-.89c-.02781-1.56781.08936-3.13481.35-4.68102.13896-.999.5946-1.9271 1.3-2.648 1.317-1.218 3.637-1.451 7.732-1.471l1.812.005c3.961.043 6.2.325 7.415 1.748 1.178 1.374 1.385 3.754 1.385 8.24702l-.005 1.2c-.043 3.961-.325 6.2-1.749 7.415-1.374 1.177-3.754 1.385-8.246 1.385zm-4.333-15.00002c-.33068.00024-.61157.24203-.661.569l-.006.097v3.66602c.00108.3298.24203.6098.568.66l.1.007h.582c1.995-.0019 3.6426 1.5579 3.75 3.55v.2.582c.0018.3297.2423.6095.568.661l.1.007h3.667c.3303-.0008.6106-.2424.66-.569l.007-.1v-.582c.0015-4.7337-3.7623-8.61005-8.494-8.74802h-.258z" fill="#000"/></svg>