<svg fill="none" height="24" viewBox="0 0 24 24" width="24" xmlns="http://www.w3.org/2000/svg"><path d="m12.0101 22c-4.04131.0053-7.6867-2.4277-9.23237-6.1617-1.54567-3.7341-.68633-8.03173 2.17637-10.8843 2.51917-2.52826 6.1969-3.51845 9.6449-2.59677 3.448.92167 6.1412 3.61483 7.0629 7.06285s-.0685 7.12572-2.5968 9.64492c-1.8653 1.8812-4.4057 2.9381-7.055 2.935zm-1.482-6.728c1.8377-.0383 3.6491.4413 5.227 1.384.0973.0653.2118.1001.329.1.2135-.0054.4099-.1182.522-.3.0873-.1685.1024-.3651.042-.545-.0511-.1368-.1575-.2457-.293-.3-1.7766-1.0568-3.8143-1.5935-5.881-1.549-1.28227.0098-2.55959.1604-3.809.449-.32757.0873-.52674.4188-.45.749.07734.2665.314.4555.591.472.05316-.0002.10602-.0079.157-.023 1.16834-.278 2.3641-.4246 3.565-.437zm-.19-2.976c2.2483-.0265 4.463.5469 6.416 1.661.1113.0809.2454.1243.383.124.2695-.0105.5177-.1491.668-.373.1174-.1713.154-.3854.1-.586-.0366-.1739-.1457-.3238-.3-.412-2.2083-1.2753-4.7181-1.9352-7.268-1.911-1.34424-.0082-2.68243.1804-3.972.56-.39624.1304-.61751.5517-.5.952.0981.3235.40338.5389.741.523.07177.0007.14334-.0077.213-.025 1.13979-.3503 2.32665-.5233 3.519-.513zm.189-3.088c2.564-.07396 5.104.51138 7.377 1.7.1532.0837.3254.1268.5.125.3101.0065.6056-.1313.8-.373.1209-.2212.1524-.4803.088-.724-.0602-.24314-.2179-.45074-.436-.574-2.5632-1.36235-5.4352-2.03891-8.337-1.964-1.60677-.01653-3.20806.19011-4.758.614-.43536.13464-.70529.56913-.63311 1.01909.07219.44996.46448.77821.92011.76991.08871.00008.17697-.01272.262-.038 1.37128-.38879 2.79181-.57609 4.217-.556z" fill="#000"/></svg>