<svg fill="none" height="24" viewBox="0 0 24 24" width="24" xmlns="http://www.w3.org/2000/svg"><path d="m18.75 21h-13.5c-1.24196-.0017-2.24835-1.008-2.25-2.25v-13.5c.00165-1.24196 1.00804-2.24835 2.25-2.25h13.5c1.242.00165 2.2483 1.00804 2.25 2.25v13.5c-.0017 1.242-1.008 2.2483-2.25 2.25zm-12.33-15.66c-.59624.00055-1.07945.48376-1.08 1.08v10.215c.00055.5962.48376 1.0794 1.08 1.08h3.33c.5962-.0006 1.0794-.4838 1.08-1.08v-10.215c-.0006-.59624-.4838-1.07945-1.08-1.08zm7.83 0c-.5962.00055-1.0794.48376-1.08 1.08v5.715c.0006.5962.4838 1.0794 1.08 1.08h3.33c.5962-.0006 1.0794-.4838 1.08-1.08v-5.715c-.0006-.59624-.4838-1.07945-1.08-1.08z" fill="#000"/></svg>